<svg width="292" height="3159" viewBox="0 0 292 3159" fill="none" xmlns="http://www.w3.org/2000/svg">
<path d="M90.8121 1157.62C92.0252 1162.21 96.8499 1167.81 109.82 1181.73C134.126 1207.84 141.514 1222.71 142.603 1247.72C143.653 1272.01 157.859 1325.45 163.332 1330.24C168.804 1335.03 177.476 1340.82 182.289 1329.4C186.992 1318.24 191.575 1293.27 192.373 1289.33C193.986 1281.36 210.12 1260.81 213.347 1249.49C216.574 1238.17 216.574 1220.98 216.574 1220.98C218.336 1215.11 237.951 1199.59 235.127 1178.21C232.304 1156.82 220.155 1159.76 204.193 1150C193.606 1143.53 182.685 1134.23 179.923 1129.34C177.16 1124.45 170.965 1119.15 166.162 1117.57C161.354 1115.99 150.14 1110.55 141.234 1105.49C107.53 1086.33 104.603 1089 90.9698 1151.3C90.4566 1153.65 90.2589 1155.53 90.8121 1157.62ZM96.7788 1158.37C94.5407 1152.46 95.4979 1146.93 98.4889 1138.72C101.021 1131.77 103.867 1120.97 104.813 1114.73C107.294 1098.37 116.526 1096.37 135.916 1107.99C144.527 1113.15 156.344 1118.99 162.172 1120.96C168.258 1123.02 174.738 1128.18 177.4 1133.09C179.945 1137.79 190.93 1147.08 201.81 1153.73C222.064 1166.12 227.061 1166.81 228.674 1181.73C230.287 1196.66 218.994 1207.56 214.96 1214.27C210.927 1220.98 211.33 1235.47 207.7 1247.72C204.07 1259.98 194.39 1274.23 189.953 1282.2C187.547 1286.52 182.104 1315.26 177.449 1326.47C173.518 1335.93 165.752 1321.85 165.752 1321.85C165.752 1321.85 148.468 1268.78 146.47 1242.14C144.725 1218.9 135.652 1201.49 114.221 1180.24C104.443 1170.54 99.0155 1164.27 96.7788 1158.37ZM143.568 1171.32C145.743 1176.28 161.416 1198.57 162.172 1204.86C162.928 1211.15 162.172 1224.99 162.928 1230.02C163.684 1235.06 171.398 1262.73 180.675 1261.47C189.953 1260.21 189.146 1234.64 189.953 1225.83C190.76 1217.02 194.364 1187.47 172.205 1161.26C162.626 1149.91 145.958 1137.42 139.937 1139.45C133.239 1141.71 141.392 1166.36 143.568 1171.32ZM143.568 1150C146.708 1138.36 161.716 1158.87 168.575 1166.29C192.253 1191.89 185.919 1214.93 185.919 1222.48C185.919 1230.02 184.709 1252.67 179.465 1253.09C174.222 1253.51 168.575 1233.8 167.768 1227.51C166.962 1221.22 168.978 1210.73 167.768 1202.77C166.558 1194.8 141.574 1157.39 143.568 1150Z" fill="#FFBD59"/>
<path d="M6.49903 600.5C3.99902 611.5 -0.584308 642.876 0.0615253 655.023C5.49903 700.556 41.999 671.5 41.999 671.5C51.499 660.5 36.5178 615.322 54.7584 613.496C72.999 611.669 69.2751 655.5 86.999 655.5C99.1553 655.5 101.499 643 102.499 636.5C103.499 630 96.0084 574.73 100.081 525.484C104.42 472.986 113.248 452.529 137.264 439.309C166.253 423.356 209.545 429.904 243.779 455.418C253.67 462.79 269.649 472.764 279.29 477.577C285.238 480.548 289.18 482.738 291.81 484.928L291.81 479.648C284.133 476.64 267.06 466.032 258.451 458.557C232.607 436.105 185.915 420.169 160.186 425.02C137.092 429.378 119.868 440.881 110.3 458.34C99.0085 478.949 96.7741 489.009 93.347 534.58C89.1595 590.227 103.499 643 89.999 648.5C76.499 654 80.7448 603.309 53.999 607C27.2532 610.691 47.499 661.5 36.999 668.5C36.999 668.5 5.49902 688.94 5.49903 651.5C5.49903 624.164 22.1116 559.5 27.3053 559.5C32.499 559.5 31.0824 573.286 38.999 579.5C46.9157 585.714 49.9209 580.856 69.499 567.5C87.5303 555.206 68.0293 543.421 74.4564 484.402C79.6074 437.059 86.6126 417.453 103.024 404.422C116.363 393.836 118.311 393.597 165.337 396.795C196.399 398.909 166.863 344.84 131.123 334.172C117.811 330.199 96.0449 337.278 83.3262 349.713C67.1803 365.497 56.0866 396.6 50.0709 442.908C42.5709 500.712 35.1803 527.728 27.3053 526.145C18.8886 524.449 4.00321 493.557 4.00321 477.789C4.00321 470.569 9.84178 449.982 16.9824 432.029C32.4303 393.191 32.8938 383.336 20.6907 353.166C14.7688 338.525 11.4199 322.908 11.4199 309.942C11.4199 290.195 12.0032 289.073 33.1334 268.334C45.0762 256.61 56.7585 243.227 59.097 238.587C61.4303 233.952 63.3418 214.742 63.3418 195.905C63.3418 148.508 64.9668 146.66 106.628 146.66C135.649 146.66 154.999 149.833 172.499 146.66C189.999 143.487 215.702 113 230.238 100C244.773 87 289.196 17.2712 291.811 15L291.811 0C289.132 4.92499 246.511 74.7799 206.499 111.746C179.53 136.663 176.499 138 165.999 140.871C155.499 143.741 121.18 140.871 102.488 140.871C72.2741 140.871 70.6543 141.315 64.3574 151.327C59.5345 158.981 57.6855 170.071 57.4303 192.821C57.2376 209.89 56.821 226.922 56.5033 230.667C56.1855 234.413 44.9043 248.452 31.4355 261.862C0.862616 292.304 -1.91345 305.232 12.9563 347.843C25.3157 383.26 25.0397 398.075 11.4199 430.365C-2.94468 464.422 -3.55406 490.402 9.46677 513.526C31.722 553.042 43.3105 536.238 54.3834 448.404C58.248 417.773 62.9251 398.362 70.5345 381.423C89.8158 338.503 120.342 327.039 150.847 351.252C162.592 360.575 174.607 378.816 174.607 387.32C174.607 389.38 160.977 390.73 143.404 390.41C117.05 389.922 110.566 391.088 101.68 397.896C84.1178 411.355 74.5709 433.975 70.5866 471.593C62.9668 543.399 83.2126 553.672 63.1553 564.464C46.1605 573.614 46.999 576 41.8001 571.448C36.6012 566.896 35.222 550 25.999 550.5C16.7761 551 8.99904 589.5 6.49903 600.5ZM97.6387 769.196C98.0189 777.782 99.972 787.073 103.503 797.052C121.154 846.878 140.279 887.824 152.852 902.698C166.269 918.559 166.456 918.635 191.795 918.304C205.8 918.12 230.847 916.586 247.456 914.889C264.066 913.193 282.003 912.938 287.326 914.331C289.175 914.813 290.597 915.296 291.81 915.892L291.81 908.872L277.248 906.975C264.456 905.311 245.857 906.677 224.435 910.856C167.003 922.055 159.071 916.261 126.587 839.349C108.894 797.464 104.139 782.108 104.139 766.838C104.139 743.167 115.061 727.664 140.743 714.888C162.352 704.139 169.545 689.661 174.863 646.237C181.378 592.997 188.389 576.404 207.592 568.762C220.717 563.536 239.113 571.325 260.623 591.208C270.868 600.678 283.243 610.006 288.123 611.936C289.597 612.521 290.774 613.134 291.81 613.817L291.81 607.133C284.529 604.418 270.691 594.607 263.618 586.682C251.482 573.082 229.613 561.601 215.837 561.601C201.899 561.601 183.727 577.239 178.685 593.571C176.576 600.401 172.295 624.094 169.165 646.232C166.04 668.364 160.868 690.615 157.68 695.689C154.488 700.757 144.889 708.069 136.352 711.934C109.508 724.098 96.5032 743.449 97.6387 769.196ZM103.592 244.175C103.915 252.615 108.316 261.786 116.748 270.562C130.779 285.165 136.618 286.368 152.352 277.896C176.748 264.768 177.097 246.034 153.279 227.854C132.628 212.08 129.232 211.581 114.91 222.195C107.029 228.033 103.274 235.735 103.592 244.175ZM108.253 244.706C108.154 237.286 113.061 230.521 123.227 222.563C128.305 218.59 132.133 219.761 146.003 229.502C164.852 242.739 167.488 247.314 163.201 259.309C156.201 278.915 131.519 281.495 117.451 264.09C111.436 256.653 108.331 250.485 108.253 244.706ZM156.144 784.385C156.279 822.025 180.659 862.738 202.982 862.614C215.404 862.543 219.232 860.174 227.67 847.339C237.034 833.099 235.472 816.171 223.191 798.776C217.274 790.396 209.592 773.121 206.118 760.383C202.644 747.644 196.748 733.909 193.008 729.86C186.508 722.818 185.784 722.791 176.394 729.198C163.118 738.251 156.045 757.52 156.144 784.385ZM160.988 776.85C161.399 762.529 164.982 749.346 172.404 740.364C184.555 725.664 191.467 730.667 200.024 760.35C204.06 774.362 211.441 791.393 216.415 798.196C226.665 812.208 229.81 822.307 227.633 834.205C226.81 838.72 222.118 846.341 217.206 851.144C209.243 858.928 207.081 859.356 197.274 855.128C174.534 845.328 160.081 808.343 160.988 776.85ZM190.102 274.535C189.201 290.998 198.326 303.514 219.701 322.719C230.597 332.513 246.185 350.542 254.347 362.792C262.503 375.043 275.441 392.41 283.087 401.392C286.753 405.696 289.639 409.637 291.811 413.306L291.811 403.604C291.55 403.398 291.331 403.257 291.045 403.007C287.769 400.178 278.321 387.375 270.05 374.55C261.779 361.73 242.821 338.926 227.925 323.884C213.029 308.837 199.196 292.022 197.186 286.509C192.805 274.525 196.305 259.943 209.118 236.76C214.217 227.545 222.727 207.288 228.034 191.748C244.456 143.651 277.17 94.4848 291.811 82.5L291.811 64.5C290.368 67.0747 262.378 106.293 258.378 111.746C251.446 121.2 238.779 147.684 230.238 170.608C221.691 193.526 209.019 224.005 202.071 238.337C194.795 253.357 190.644 264.659 190.102 274.535ZM234.368 698.35C234.378 701.18 234.68 704.497 235.154 708.671C238.826 740.928 265.826 773.836 288.654 773.88C289.894 773.88 290.899 773.988 291.81 774.156L291.81 769.348C290.488 769.202 288.894 768.866 286.795 768.345C269.977 764.188 258.628 753.433 247.644 731.236C231.868 699.358 238.128 680.197 269.18 665.355C280.842 659.783 287.779 657.317 291.81 658.493L291.81 651.397L276.993 655.88C262.847 660.162 253.482 666.087 245.024 676.115C236.873 685.78 234.326 689.862 234.368 698.35ZM275.092 249.682C274.894 259.586 277.258 263.239 285.409 272.904C288.133 276.129 290.212 278.726 291.811 281.246L291.811 271.386C289.618 269.771 286.493 265.516 284.003 260.507C278.696 249.823 278.857 246.181 286.076 214.189C288.133 205.061 290.149 196.854 291.811 190.642L291.811 174.955C290.691 178.955 289.373 183.156 287.805 187.693C282.534 202.887 277.238 225.187 276.024 237.248C275.508 242.386 275.159 246.381 275.092 249.682Z" fill="#FFBD59"/>
<path fill-rule="evenodd" clip-rule="evenodd" d="M271.381 1116.01C282.104 1137.05 288.355 1150.18 291.999 1160.78L291.999 1145.27C288.52 1138.59 282.946 1127.59 276.636 1114.84C266.939 1095.26 258.993 1077.9 258.964 1076.26C258.858 1068.75 270.989 1061.44 283.575 1061.44L291.999 1061.44L291.999 1054.7C290.997 1054.88 289.855 1054.97 288.433 1054.97C277.744 1054.97 261.558 1060.7 258.185 1065.69C252.79 1073.67 255.954 1085.75 271.381 1116.01ZM266.663 1007.85L291.999 1008.01L291.999 1003.75L261.248 1002.68C247.122 1002.19 238.898 1002.1 230.926 1000.57C217.356 997.977 204.518 991.222 164.544 971.251C148.474 963.224 140.054 961.111 124.134 961.111C106.279 961.111 103.371 962.052 98.1496 969.533C92.6285 977.446 92.6284 979.182 98.0722 998.381C101.261 1009.62 103.869 1022.63 103.869 1027.29C103.869 1040.57 119.411 1066.05 135.307 1078.84C143.654 1085.55 162.337 1094.93 179.375 1100.97C246.504 1124.76 260.909 1165.76 228.605 1241.06C219.402 1262.52 213.948 1281.07 212.424 1296.09C208.137 1338.6 201.406 1373.03 190.562 1407.76C179.719 1442.49 197.023 1472.26 199.84 1486.52C202.658 1500.78 202.658 1521.33 212.719 1531.4C222.78 1541.46 231.231 1531.82 247.731 1532.24C264.231 1532.66 291.999 1551.11 291.999 1551.11L291.999 1543.56C291.906 1543.11 266.629 1527.62 248.536 1526.37C230.442 1525.11 225.194 1533.92 216.743 1526.37C208.292 1518.82 208.292 1501.2 205.475 1488.62C202.658 1476.04 186.493 1440.39 193.427 1416.47C200.36 1392.55 210.198 1357.39 215.656 1311.29C219.629 1277.76 222.779 1265.24 232.791 1243.3C267.026 1168.23 250.549 1120.38 182.384 1096.95C135.196 1080.72 116.886 1061.69 107.242 1018.83C98.8657 981.614 99.7028 970.119 111.074 966.388C126.723 961.252 149.417 967.038 179.868 983.923C216.266 1004.11 228.963 1007.61 266.663 1007.85Z" fill="#FFBD59"/>
<path d="M286.096 1236.21L291.999 1226.67L291.999 1217.51C290.218 1221.05 287.867 1224.87 284.567 1229.74C262.361 1262.43 257.648 1282.32 257.329 1344.63C257.053 1398.96 256.912 1399.97 245.928 1424.98C239.052 1440.64 235.206 1456.87 235.658 1465.13C236.109 1473.4 247.731 1484.85 258.194 1491.14C268.658 1497.43 291.999 1510.85 291.999 1510.85L291.999 1502.46C291.999 1502.46 241.292 1483.59 240.084 1464.95C238.877 1446.3 245.415 1436.38 250.036 1426.8C263.116 1399.62 267.345 1373.34 262.68 1348.21C256.53 1315.04 266.329 1268.18 286.096 1236.21Z" fill="#FFBD59"/>
<path d="M90.8121 2764.62C92.0252 2769.21 96.8499 2774.81 109.82 2788.73C134.126 2814.84 141.514 2829.71 142.603 2854.72C143.653 2879.01 157.859 2932.45 163.332 2937.24C168.804 2942.03 177.476 2947.82 182.289 2936.4C186.992 2925.24 191.575 2900.27 192.373 2896.33C193.986 2888.36 210.12 2867.81 213.347 2856.49C216.574 2845.17 216.574 2827.98 216.574 2827.98C218.336 2822.11 237.951 2806.59 235.127 2785.21C232.304 2763.82 220.155 2766.76 204.193 2757C193.606 2750.53 182.685 2741.23 179.923 2736.34C177.16 2731.45 170.965 2726.15 166.162 2724.57C161.354 2722.99 150.14 2717.55 141.234 2712.49C107.53 2693.33 104.603 2696 90.9698 2758.3C90.4566 2760.65 90.2589 2762.53 90.8121 2764.62ZM96.7788 2765.37C94.5407 2759.46 95.4979 2753.93 98.4889 2745.72C101.021 2738.77 103.867 2727.97 104.813 2721.73C107.294 2705.37 116.526 2703.37 135.916 2714.99C144.527 2720.15 156.344 2725.99 162.172 2727.96C168.258 2730.02 174.738 2735.18 177.4 2740.09C179.945 2744.79 190.93 2754.08 201.81 2760.73C222.064 2773.12 227.061 2773.81 228.674 2788.73C230.287 2803.66 218.994 2814.56 214.96 2821.27C210.927 2827.98 211.33 2842.47 207.7 2854.72C204.07 2866.98 194.39 2881.23 189.953 2889.2C187.547 2893.52 182.104 2922.26 177.449 2933.47C173.518 2942.93 165.752 2928.85 165.752 2928.85C165.752 2928.85 148.468 2875.78 146.47 2849.14C144.725 2825.9 135.652 2808.49 114.221 2787.24C104.443 2777.54 99.0155 2771.27 96.7788 2765.37ZM143.568 2778.32C145.743 2783.28 161.416 2805.57 162.172 2811.86C162.928 2818.15 162.172 2831.99 162.928 2837.02C163.684 2842.06 171.398 2869.73 180.675 2868.47C189.953 2867.21 189.146 2841.64 189.953 2832.83C190.76 2824.02 194.364 2794.47 172.205 2768.26C162.626 2756.91 145.958 2744.42 139.937 2746.45C133.239 2748.71 141.392 2773.36 143.568 2778.32ZM143.568 2757C146.708 2745.36 161.716 2765.87 168.575 2773.29C192.253 2798.89 185.919 2821.93 185.919 2829.48C185.919 2837.02 184.709 2859.67 179.465 2860.09C174.222 2860.51 168.575 2840.8 167.768 2834.51C166.962 2828.22 168.978 2817.73 167.768 2809.77C166.558 2801.8 141.574 2764.39 143.568 2757Z" fill="#FFBD59"/>
<path d="M6.49903 2207.5C3.99902 2218.5 -0.584308 2249.88 0.0615253 2262.02C5.49903 2307.56 41.999 2278.5 41.999 2278.5C51.499 2267.5 36.5178 2222.32 54.7584 2220.5C72.999 2218.67 69.2751 2262.5 86.999 2262.5C99.1553 2262.5 101.499 2250 102.499 2243.5C103.499 2237 96.0084 2181.73 100.081 2132.48C104.42 2079.99 113.248 2059.53 137.264 2046.31C166.253 2030.36 209.545 2036.9 243.779 2062.42C253.67 2069.79 269.649 2079.76 279.29 2084.58C285.238 2087.55 289.18 2089.74 291.81 2091.93L291.81 2086.65C284.133 2083.64 267.06 2073.03 258.451 2065.56C232.607 2043.11 185.915 2027.17 160.186 2032.02C137.092 2036.38 119.868 2047.88 110.3 2065.34C99.0085 2085.95 96.7741 2096.01 93.347 2141.58C89.1595 2197.23 103.499 2250 89.999 2255.5C76.499 2261 80.7448 2210.31 53.999 2214C27.2532 2217.69 47.499 2268.5 36.999 2275.5C36.999 2275.5 5.49902 2295.94 5.49903 2258.5C5.49903 2231.16 22.1116 2166.5 27.3053 2166.5C32.499 2166.5 31.0824 2180.29 38.999 2186.5C46.9157 2192.71 49.9209 2187.86 69.499 2174.5C87.5303 2162.21 68.0293 2150.42 74.4564 2091.4C79.6074 2044.06 86.6126 2024.45 103.024 2011.42C116.363 2000.84 118.311 2000.6 165.337 2003.8C196.399 2005.91 166.863 1951.84 131.123 1941.17C117.811 1937.2 96.0449 1944.28 83.3262 1956.71C67.1803 1972.5 56.0866 2003.6 50.0709 2049.91C42.5709 2107.71 35.1803 2134.73 27.3053 2133.15C18.8886 2131.45 4.00321 2100.56 4.00321 2084.79C4.00321 2077.57 9.84178 2056.98 16.9824 2039.03C32.4303 2000.19 32.8938 1990.34 20.6907 1960.17C14.7688 1945.52 11.4199 1929.91 11.4199 1916.94C11.4199 1897.2 12.0032 1896.07 33.1334 1875.33C45.0762 1863.61 56.7585 1850.23 59.097 1845.59C61.4303 1840.95 63.3418 1821.74 63.3418 1802.91C63.3418 1755.51 64.9668 1753.66 106.628 1753.66C135.649 1753.66 154.999 1756.83 172.499 1753.66C189.999 1750.49 215.702 1720 230.238 1707C244.773 1694 289.196 1624.27 291.811 1622L291.811 1607C289.132 1611.92 246.511 1681.78 206.499 1718.75C179.53 1743.66 176.499 1745 165.999 1747.87C155.499 1750.74 121.18 1747.87 102.488 1747.87C72.2741 1747.87 70.6543 1748.32 64.3574 1758.33C59.5345 1765.98 57.6855 1777.07 57.4303 1799.82C57.2376 1816.89 56.821 1833.92 56.5033 1837.67C56.1855 1841.41 44.9043 1855.45 31.4355 1868.86C0.862616 1899.3 -1.91345 1912.23 12.9563 1954.84C25.3157 1990.26 25.0397 2005.07 11.4199 2037.36C-2.94468 2071.42 -3.55406 2097.4 9.46677 2120.53C31.722 2160.04 43.3105 2143.24 54.3834 2055.4C58.248 2024.77 62.9251 2005.36 70.5345 1988.42C89.8158 1945.5 120.342 1934.04 150.847 1958.25C162.592 1967.58 174.607 1985.82 174.607 1994.32C174.607 1996.38 160.977 1997.73 143.404 1997.41C117.05 1996.92 110.566 1998.09 101.68 2004.9C84.1178 2018.35 74.5709 2040.97 70.5866 2078.59C62.9668 2150.4 83.2126 2160.67 63.1553 2171.46C46.1605 2180.61 46.999 2183 41.8001 2178.45C36.6012 2173.9 35.222 2157 25.999 2157.5C16.7761 2158 8.99904 2196.5 6.49903 2207.5ZM97.6387 2376.2C98.0189 2384.78 99.972 2394.07 103.503 2404.05C121.154 2453.88 140.279 2494.82 152.852 2509.7C166.269 2525.56 166.456 2525.63 191.795 2525.3C205.8 2525.12 230.847 2523.59 247.456 2521.89C264.066 2520.19 282.003 2519.94 287.326 2521.33C289.175 2521.81 290.597 2522.3 291.81 2522.89L291.81 2515.87L277.248 2513.98C264.456 2512.31 245.857 2513.68 224.435 2517.86C167.003 2529.06 159.071 2523.26 126.587 2446.35C108.894 2404.46 104.139 2389.11 104.139 2373.84C104.139 2350.17 115.061 2334.66 140.743 2321.89C162.352 2311.14 169.545 2296.66 174.863 2253.24C181.378 2200 188.389 2183.4 207.592 2175.76C220.717 2170.54 239.113 2178.33 260.623 2198.21C270.868 2207.68 283.243 2217.01 288.123 2218.94C289.597 2219.52 290.774 2220.13 291.81 2220.82L291.81 2214.13C284.529 2211.42 270.691 2201.61 263.618 2193.68C251.482 2180.08 229.613 2168.6 215.837 2168.6C201.899 2168.6 183.727 2184.24 178.685 2200.57C176.576 2207.4 172.295 2231.09 169.165 2253.23C166.04 2275.36 160.868 2297.61 157.68 2302.69C154.488 2307.76 144.889 2315.07 136.352 2318.93C109.508 2331.1 96.5032 2350.45 97.6387 2376.2ZM103.592 1851.18C103.915 1859.61 108.316 1868.79 116.748 1877.56C130.779 1892.17 136.618 1893.37 152.352 1884.9C176.748 1871.77 177.097 1853.03 153.279 1834.85C132.628 1819.08 129.232 1818.58 114.91 1829.19C107.029 1835.03 103.274 1842.74 103.592 1851.18ZM108.253 1851.71C108.154 1844.29 113.061 1837.52 123.227 1829.56C128.305 1825.59 132.133 1826.76 146.003 1836.5C164.852 1849.74 167.488 1854.31 163.201 1866.31C156.201 1885.92 131.519 1888.5 117.451 1871.09C111.436 1863.65 108.331 1857.48 108.253 1851.71ZM156.144 2391.38C156.279 2429.02 180.659 2469.74 202.982 2469.61C215.404 2469.54 219.232 2467.17 227.67 2454.34C237.034 2440.1 235.472 2423.17 223.191 2405.78C217.274 2397.4 209.592 2380.12 206.118 2367.38C202.644 2354.64 196.748 2340.91 193.008 2336.86C186.508 2329.82 185.784 2329.79 176.394 2336.2C163.118 2345.25 156.045 2364.52 156.144 2391.38ZM160.988 2383.85C161.399 2369.53 164.982 2356.35 172.404 2347.36C184.555 2332.66 191.467 2337.67 200.024 2367.35C204.06 2381.36 211.441 2398.39 216.415 2405.2C226.665 2419.21 229.81 2429.31 227.633 2441.2C226.81 2445.72 222.118 2453.34 217.206 2458.14C209.243 2465.93 207.081 2466.36 197.274 2462.13C174.534 2452.33 160.081 2415.34 160.988 2383.85ZM190.102 1881.54C189.201 1898 198.326 1910.51 219.701 1929.72C230.597 1939.51 246.185 1957.54 254.347 1969.79C262.503 1982.04 275.441 1999.41 283.087 2008.39C286.753 2012.7 289.639 2016.64 291.811 2020.31L291.811 2010.6C291.55 2010.4 291.331 2010.26 291.045 2010.01C287.769 2007.18 278.321 1994.37 270.05 1981.55C261.779 1968.73 242.821 1945.93 227.925 1930.88C213.029 1915.84 199.196 1899.02 197.186 1893.51C192.805 1881.52 196.305 1866.94 209.118 1843.76C214.217 1834.54 222.727 1814.29 228.034 1798.75C244.456 1750.65 277.17 1701.48 291.811 1689.5L291.811 1671.5C290.368 1674.07 262.378 1713.29 258.378 1718.75C251.446 1728.2 238.779 1754.68 230.238 1777.61C221.691 1800.53 209.019 1831.01 202.071 1845.34C194.795 1860.36 190.644 1871.66 190.102 1881.54ZM234.368 2305.35C234.378 2308.18 234.68 2311.5 235.154 2315.67C238.826 2347.93 265.826 2380.84 288.654 2380.88C289.894 2380.88 290.899 2380.99 291.81 2381.16L291.81 2376.35C290.488 2376.2 288.894 2375.87 286.795 2375.35C269.977 2371.19 258.628 2360.43 247.644 2338.24C231.868 2306.36 238.128 2287.2 269.18 2272.36C280.842 2266.78 287.779 2264.32 291.81 2265.49L291.81 2258.4L276.993 2262.88C262.847 2267.16 253.482 2273.09 245.024 2283.12C236.873 2292.78 234.326 2296.86 234.368 2305.35ZM275.092 1856.68C274.894 1866.59 277.258 1870.24 285.409 1879.9C288.133 1883.13 290.212 1885.73 291.811 1888.25L291.811 1878.39C289.618 1876.77 286.493 1872.52 284.003 1867.51C278.696 1856.82 278.857 1853.18 286.076 1821.19C288.133 1812.06 290.149 1803.85 291.811 1797.64L291.811 1781.95C290.691 1785.96 289.373 1790.16 287.805 1794.69C282.534 1809.89 277.238 1832.19 276.024 1844.25C275.508 1849.39 275.159 1853.38 275.092 1856.68Z" fill="#FFBD59"/>
<path fill-rule="evenodd" clip-rule="evenodd" d="M271.381 2723.01C282.104 2744.05 288.355 2757.18 291.999 2767.78L291.999 2752.27C288.52 2745.59 282.946 2734.59 276.636 2721.84C266.939 2702.26 258.993 2684.9 258.964 2683.26C258.858 2675.75 270.989 2668.44 283.575 2668.44L291.999 2668.44L291.999 2661.7C290.997 2661.88 289.855 2661.97 288.433 2661.97C277.744 2661.97 261.558 2667.7 258.185 2672.69C252.79 2680.67 255.954 2692.75 271.381 2723.01ZM266.663 2614.85L291.999 2615.01L291.999 2610.75L261.248 2609.68C247.122 2609.19 238.898 2609.1 230.926 2607.57C217.356 2604.98 204.518 2598.22 164.544 2578.25C148.474 2570.22 140.054 2568.11 124.134 2568.11C106.279 2568.11 103.371 2569.05 98.1496 2576.53C92.6285 2584.45 92.6284 2586.18 98.0722 2605.38C101.261 2616.62 103.869 2629.63 103.869 2634.29C103.869 2647.57 119.411 2673.05 135.307 2685.84C143.654 2692.55 162.337 2701.93 179.375 2707.97C246.504 2731.76 260.909 2772.76 228.605 2848.06C219.402 2869.52 213.948 2888.07 212.424 2903.09C208.137 2945.6 201.406 2980.03 190.562 3014.76C179.719 3049.49 197.023 3079.26 199.84 3093.52C202.658 3107.78 202.658 3128.33 212.719 3138.4C222.78 3148.46 231.231 3138.82 247.731 3139.24C264.231 3139.66 291.999 3158.11 291.999 3158.11L291.999 3150.56C291.906 3150.11 266.629 3134.62 248.536 3133.37C230.442 3132.11 225.194 3140.92 216.743 3133.37C208.292 3125.82 208.292 3108.2 205.475 3095.62C202.658 3083.04 186.493 3047.39 193.427 3023.47C200.36 2999.55 210.198 2964.39 215.656 2918.29C219.629 2884.76 222.779 2872.24 232.791 2850.3C267.026 2775.23 250.549 2727.38 182.384 2703.95C135.196 2687.72 116.886 2668.69 107.242 2625.83C98.8657 2588.61 99.7028 2577.12 111.074 2573.39C126.723 2568.25 149.417 2574.04 179.868 2590.92C216.266 2611.11 228.963 2614.61 266.663 2614.85Z" fill="#FFBD59"/>
<path d="M286.096 2843.21L291.999 2833.67L291.999 2824.51C290.218 2828.05 287.867 2831.87 284.567 2836.74C262.361 2869.43 257.648 2889.32 257.329 2951.63C257.053 3005.96 256.912 3006.97 245.928 3031.98C239.052 3047.64 235.206 3063.87 235.658 3072.13C236.109 3080.4 247.731 3091.85 258.194 3098.14C268.658 3104.43 291.999 3117.85 291.999 3117.85L291.999 3109.46C291.999 3109.46 241.292 3090.59 240.084 3071.95C238.877 3053.3 245.415 3043.38 250.036 3033.8C263.116 3006.62 267.345 2980.34 262.68 2955.21C256.53 2922.04 266.329 2875.18 286.096 2843.21Z" fill="#FFBD59"/>
</svg>
