<svg width="292" height="3181" viewBox="0 0 292 3181" fill="none" xmlns="http://www.w3.org/2000/svg">
<path d="M201.187 2022.5C199.974 2017.9 195.149 2012.31 182.179 1998.38C157.873 1972.27 150.485 1957.41 149.397 1932.39C148.346 1908.1 134.14 1854.66 128.667 1849.87C123.195 1845.08 114.523 1839.29 109.71 1850.71C105.007 1861.87 100.424 1886.85 99.6262 1890.78C98.0128 1898.75 81.879 1919.3 78.6522 1930.62C75.4254 1941.94 75.4254 1959.13 75.4254 1959.13C73.6629 1965 54.0481 1980.52 56.8715 2001.9C59.695 2023.29 71.844 2020.35 87.8057 2030.11C98.3931 2036.58 109.314 2045.88 112.076 2050.77C114.839 2055.66 121.034 2060.96 125.837 2062.54C130.645 2064.13 141.859 2069.56 150.765 2074.62C184.469 2093.78 187.396 2091.11 201.029 2028.82C201.542 2026.46 201.74 2024.58 201.187 2022.5ZM195.22 2021.74C197.458 2027.65 196.501 2033.18 193.51 2041.39C190.978 2048.35 188.132 2059.14 187.186 2065.38C184.705 2081.74 175.473 2083.74 156.083 2072.12C147.473 2066.96 135.655 2061.13 129.827 2059.15C123.741 2057.09 117.261 2051.93 114.599 2047.02C112.054 2042.32 101.069 2033.03 90.1889 2026.38C69.935 2014 64.9384 2013.3 63.325 1998.38C61.7117 1983.45 73.0053 1972.55 77.0388 1965.84C81.0723 1959.13 80.6689 1944.64 84.299 1932.39C87.9291 1920.14 97.6095 1905.88 102.046 1897.91C104.452 1893.59 109.895 1864.85 114.55 1853.64C118.481 1844.18 126.247 1858.26 126.247 1858.26C126.247 1858.26 143.531 1911.33 145.529 1937.98C147.274 1961.21 156.347 1978.62 177.779 1999.88C187.556 2009.57 192.984 2015.84 195.22 2021.74ZM148.431 2008.79C146.256 2003.83 130.583 1981.54 129.827 1975.25C129.071 1968.96 129.827 1955.12 129.071 1950.09C128.315 1945.06 120.601 1917.38 111.324 1918.64C102.046 1919.9 102.853 1945.47 102.046 1954.28C101.239 1963.09 97.6347 1992.64 119.794 2018.86C129.373 2030.2 146.041 2042.69 152.062 2040.66C158.76 2038.4 150.607 2013.76 148.431 2008.79ZM148.431 2030.11C145.291 2041.75 130.283 2021.24 123.424 2013.82C99.7462 1988.22 106.08 1965.18 106.08 1957.64C106.08 1950.09 107.29 1927.44 112.534 1927.02C117.777 1926.61 123.424 1946.31 124.231 1952.6C125.037 1958.89 123.021 1969.38 124.231 1977.34C125.441 1985.31 150.425 2022.72 148.431 2030.11Z" fill="#FFBD59"/>
<path d="M285.5 2579.61C288 2568.61 292.583 2537.24 291.937 2525.09C286.5 2479.55 250 2508.61 250 2508.61C240.5 2519.61 255.481 2564.79 237.241 2566.62C219 2568.44 222.724 2524.61 205 2524.61C192.844 2524.61 190.5 2537.11 189.5 2543.61C188.5 2550.11 195.991 2605.38 191.918 2654.63C187.579 2707.12 178.751 2727.58 154.735 2740.8C125.746 2756.76 82.4542 2750.21 48.2198 2724.69C38.3292 2717.32 22.35 2707.35 12.7094 2702.53C6.76144 2699.56 2.81873 2697.37 0.188524 2695.18L0.188524 2700.46C7.86561 2703.47 24.9385 2714.08 33.5479 2721.55C59.3917 2744.01 106.084 2759.94 131.813 2755.09C154.907 2750.73 172.131 2739.23 181.699 2721.77C192.991 2701.16 195.225 2691.1 198.652 2645.53C202.84 2589.88 188.5 2537.11 202 2531.61C215.5 2526.11 211.254 2576.8 238 2573.11C264.746 2569.42 244.5 2518.61 255 2511.61C255 2511.61 286.5 2491.17 286.5 2528.61C286.5 2555.95 269.887 2620.61 264.694 2620.61C259.5 2620.61 260.917 2606.82 253 2600.61C245.083 2594.4 242.078 2599.25 222.5 2612.61C204.469 2624.9 223.97 2636.69 217.543 2695.71C212.392 2743.05 205.386 2762.66 188.975 2775.69C175.636 2786.28 173.688 2786.51 126.662 2783.32C95.5999 2781.2 125.136 2835.27 160.876 2845.94C174.188 2849.91 195.954 2842.83 208.673 2830.4C224.819 2814.61 235.912 2783.51 241.928 2737.2C249.428 2679.4 256.819 2652.38 264.694 2653.97C273.11 2655.66 287.996 2686.55 287.996 2702.32C287.996 2709.54 282.157 2730.13 275.017 2748.08C259.569 2786.92 259.105 2796.77 271.308 2826.95C277.23 2841.59 280.579 2857.2 280.579 2870.17C280.579 2889.92 279.996 2891.04 258.866 2911.78C246.923 2923.5 235.241 2936.88 232.902 2941.52C230.569 2946.16 228.657 2965.37 228.657 2984.21C228.657 3031.6 227.032 3033.45 185.371 3033.45C156.35 3033.45 137 3030.28 119.5 3033.45C102 3036.62 76.2969 3067.11 61.7614 3080.11C47.226 3093.11 2.80308 3162.84 0.1885 3165.11L0.188507 3180.11C2.86729 3175.19 45.4884 3105.33 85.5 3068.36C112.469 3043.45 115.5 3042.11 126 3039.24C136.5 3036.37 170.819 3039.24 189.511 3039.24C219.725 3039.24 221.345 3038.8 227.642 3028.78C232.465 3021.13 234.313 3010.04 234.569 2987.29C234.761 2970.22 235.178 2953.19 235.496 2949.44C235.813 2945.7 247.095 2931.66 260.563 2918.25C291.136 2887.81 293.912 2874.88 279.043 2832.27C266.683 2796.85 266.959 2782.04 280.579 2749.75C294.944 2715.69 295.553 2689.71 282.532 2666.58C260.277 2627.07 248.688 2643.87 237.616 2731.71C233.751 2762.34 229.074 2781.75 221.465 2798.69C202.183 2841.61 171.657 2853.07 141.152 2828.86C129.407 2819.54 117.392 2801.3 117.392 2792.79C117.392 2790.73 131.022 2789.38 148.595 2789.7C174.949 2790.19 181.433 2789.02 190.319 2782.22C207.881 2768.76 217.428 2746.14 221.412 2708.52C229.032 2636.71 208.786 2626.44 228.844 2615.65C245.839 2606.5 245 2604.11 250.199 2608.66C255.398 2613.21 256.777 2630.11 266 2629.61C275.223 2629.11 283 2590.61 285.5 2579.61ZM194.36 2410.91C193.98 2402.33 192.027 2393.04 188.496 2383.06C170.845 2333.23 151.72 2292.29 139.147 2277.41C125.73 2261.55 125.543 2261.48 100.204 2261.81C86.199 2261.99 61.1521 2263.53 44.5427 2265.22C27.9333 2266.92 9.99584 2267.17 4.67292 2265.78C2.82396 2265.3 1.40208 2264.82 0.188543 2264.22L0.188543 2271.24L14.751 2273.14C27.5427 2274.8 46.1417 2273.43 67.5635 2269.25C124.996 2258.06 132.928 2263.85 165.412 2340.76C183.105 2382.65 187.86 2398 187.86 2413.27C187.86 2436.94 176.939 2452.45 151.256 2465.22C129.647 2475.97 122.454 2490.45 117.136 2533.87C110.621 2587.11 103.61 2603.71 84.4073 2611.35C71.2823 2616.57 52.8864 2608.79 31.376 2588.9C21.1312 2579.43 8.75624 2570.1 3.87603 2568.18C2.40207 2567.59 1.22499 2566.98 0.18853 2566.29L0.188529 2572.98C7.46978 2575.69 21.3083 2585.5 28.3812 2593.43C40.5167 2607.03 62.3864 2618.51 76.1625 2618.51C90.1 2618.51 108.272 2602.87 113.314 2586.54C115.423 2579.71 119.704 2556.02 122.834 2533.88C125.959 2511.75 131.131 2489.5 134.319 2484.42C137.511 2479.35 147.11 2472.04 155.647 2468.18C182.491 2456.01 195.496 2436.66 194.36 2410.91ZM188.407 2935.94C188.084 2927.5 183.683 2918.32 175.251 2909.55C161.22 2894.95 155.381 2893.74 139.647 2902.21C115.251 2915.34 114.902 2934.08 138.72 2952.26C159.371 2968.03 162.767 2968.53 177.09 2957.92C184.97 2952.08 188.725 2944.38 188.407 2935.94ZM183.746 2935.4C183.845 2942.83 178.938 2949.59 168.772 2957.55C163.694 2961.52 159.866 2960.35 145.996 2950.61C127.147 2937.37 124.511 2932.8 128.798 2920.8C135.798 2901.2 160.48 2898.62 174.548 2916.02C180.563 2923.46 183.668 2929.63 183.746 2935.4ZM135.855 2395.73C135.72 2358.09 111.34 2317.37 89.0167 2317.5C76.5948 2317.57 72.7667 2319.94 64.3292 2332.77C54.9646 2347.01 56.5271 2363.94 68.8083 2381.34C74.725 2389.72 82.4073 2406.99 85.8812 2419.73C89.3552 2432.47 95.251 2446.2 98.9906 2450.25C105.491 2457.29 106.215 2457.32 115.605 2450.91C128.881 2441.86 135.954 2422.59 135.855 2395.73ZM131.011 2403.26C130.6 2417.58 127.017 2430.76 119.595 2439.75C107.444 2454.45 100.532 2449.44 91.975 2419.76C87.9385 2405.75 80.5583 2388.72 75.5844 2381.91C65.3344 2367.9 62.1885 2357.8 64.3656 2345.91C65.1885 2341.39 69.8812 2333.77 74.7927 2328.97C82.7562 2321.18 84.9177 2320.76 94.725 2324.98C117.465 2334.78 131.918 2371.77 131.011 2403.26ZM101.897 2905.58C102.798 2889.11 93.6729 2876.6 72.2979 2857.39C61.4021 2847.6 45.8135 2829.57 37.6521 2817.32C29.4958 2805.07 16.5583 2787.7 8.91248 2778.72C5.24581 2774.42 2.3604 2770.47 0.188521 2766.8L0.18852 2776.51C0.448936 2776.71 0.667687 2776.85 0.954146 2777.1C4.23019 2779.93 13.6781 2792.74 21.9489 2805.56C30.2198 2818.38 49.1781 2841.19 64.0739 2856.23C78.9698 2871.27 92.8031 2888.09 94.8135 2893.6C99.1937 2905.59 95.6937 2920.17 82.8812 2943.35C77.7823 2952.57 69.2718 2972.82 63.9645 2988.36C47.5427 3036.46 14.8291 3085.63 0.188504 3097.61L0.1885 3115.61C1.63121 3113.04 29.6208 3073.82 33.6208 3068.36C40.5531 3058.91 53.2198 3032.43 61.7614 3009.5C70.3083 2986.59 82.9802 2956.11 89.9281 2941.77C97.2041 2926.75 101.355 2915.45 101.897 2905.58ZM57.6312 2481.76C57.6208 2478.93 57.3187 2475.61 56.8448 2471.44C53.1729 2439.18 26.1729 2406.27 3.34479 2406.23C2.1052 2406.23 1.1 2406.12 0.188537 2405.96L0.188536 2410.76C1.51145 2410.91 3.1052 2411.25 5.20416 2411.77C22.0219 2415.92 33.3708 2426.68 44.3552 2448.87C60.1312 2480.75 53.8708 2499.91 22.8187 2514.76C11.1573 2520.33 4.21978 2522.79 0.188532 2521.62L0.188531 2528.71L15.0062 2524.23C29.1521 2519.95 38.5167 2514.02 46.975 2504C55.126 2494.33 57.6729 2490.25 57.6312 2481.76ZM16.9073 2930.43C17.1052 2920.53 14.7406 2916.87 6.58955 2907.21C3.86559 2903.98 1.78747 2901.39 0.188515 2898.86L0.188515 2908.72C2.38122 2910.34 5.50622 2914.6 7.9958 2919.6C13.3031 2930.29 13.1416 2933.93 5.92289 2965.92C3.86559 2975.05 1.84997 2983.26 0.188511 2989.47L0.18851 3005.16C1.3083 3001.16 2.62601 2996.95 4.19372 2992.42C9.46455 2977.22 14.7614 2954.92 15.975 2942.86C16.4906 2937.72 16.8396 2933.73 16.9073 2930.43Z" fill="#FFBD59"/>
<path fill-rule="evenodd" clip-rule="evenodd" d="M20.6184 2064.1C9.89544 2043.07 3.64369 2029.93 2.9042e-05 2019.33L2.96944e-05 2034.84C3.47917 2041.52 9.05347 2052.52 15.3634 2065.27C25.0604 2084.85 33.0059 2102.21 33.0349 2103.85C33.1414 2111.36 21.0103 2118.67 8.42443 2118.67L3.32191e-05 2118.67L3.35025e-05 2125.41C1.00167 2125.24 2.14362 2125.14 3.56624 2125.14C14.2553 2125.14 30.4413 2119.41 33.8139 2114.42C39.2093 2106.45 36.0447 2094.36 20.6184 2064.1ZM25.3363 2172.26L3.54657e-05 2172.1L3.56448e-05 2176.36L30.7509 2177.43C44.877 2177.92 53.1012 2178.01 61.0726 2179.54C74.6429 2182.13 87.4805 2188.89 127.456 2208.86C143.525 2216.89 151.945 2219 167.865 2219C185.72 2219 188.628 2218.06 193.849 2210.58C199.371 2202.67 199.371 2200.93 193.927 2181.73C190.738 2170.49 188.13 2157.48 188.13 2152.82C188.13 2139.54 172.588 2114.06 156.692 2101.27C148.345 2094.57 129.662 2085.18 112.624 2079.14C45.4948 2055.35 31.0897 2014.35 63.394 1939.05C72.5975 1917.59 78.0508 1899.05 79.575 1884.02C83.8622 1841.51 90.5935 1807.08 101.437 1772.35C112.28 1737.62 94.9756 1707.85 92.1585 1693.59C89.3415 1679.33 89.3415 1658.78 79.2805 1648.71C69.2195 1638.65 60.7683 1648.29 44.2683 1647.87C27.7683 1647.45 1.26302e-05 1629 1.26302e-05 1629L1.29476e-05 1636.55C0.0933125 1637 25.3701 1652.49 43.4634 1653.74C61.5567 1655 66.8049 1646.2 75.2561 1653.74C83.7073 1661.29 83.7073 1678.91 86.5244 1691.49C89.3415 1704.07 105.506 1739.72 98.5725 1763.64C91.6391 1787.56 81.8009 1822.72 76.3427 1868.82C72.37 1902.35 69.2199 1914.87 59.2083 1936.81C24.9734 2011.88 41.4495 2059.73 109.615 2083.16C156.803 2099.39 175.113 2118.42 184.757 2161.28C193.133 2198.5 192.296 2209.99 180.925 2213.72C165.276 2218.86 142.582 2213.07 112.131 2196.19C75.7329 2176 63.0358 2172.5 25.3363 2172.26Z" fill="#FFBD59"/>
<path d="M5.90341 1943.9L2.62718e-05 1953.44L2.6657e-05 1962.6C1.78073 1959.06 4.13242 1955.25 7.43252 1950.37C29.6381 1917.68 34.351 1897.79 34.6704 1835.48C34.9462 1781.15 35.0866 1780.14 46.0708 1755.13C52.9468 1739.47 56.793 1723.24 56.3415 1714.98C55.89 1706.71 44.2683 1695.26 33.8049 1688.97C23.3415 1682.68 1.43231e-05 1669.26 1.43231e-05 1669.26L1.46758e-05 1677.65C1.46758e-05 1677.65 50.7073 1696.52 51.9146 1715.16C53.122 1733.81 46.5837 1743.73 41.9626 1753.31C28.8832 1780.5 24.654 1806.77 29.3187 1831.91C35.4689 1865.08 25.6702 1911.93 5.90341 1943.9Z" fill="#FFBD59"/>
<path d="M201.187 393.495C199.974 388.903 195.149 383.305 182.179 369.378C157.873 343.27 150.485 328.406 149.397 303.386C148.346 279.102 134.14 225.663 128.667 220.87C123.195 216.077 114.523 210.286 109.71 221.709C105.007 232.871 100.424 257.846 99.6262 261.783C98.0128 269.75 81.879 290.297 78.6522 301.619C75.4254 312.94 75.4254 330.132 75.4254 330.132C73.6629 336.003 54.0481 351.517 56.8715 372.903C59.695 394.288 71.844 391.349 87.8057 401.11C98.3931 407.583 109.314 416.879 112.076 421.77C114.839 426.662 121.034 431.96 125.837 433.543C130.645 435.125 141.859 440.56 150.765 445.624C184.469 464.785 187.396 462.112 201.029 399.816C201.542 397.461 201.74 395.585 201.187 393.495ZM195.22 392.744C197.458 398.647 196.501 404.177 193.51 412.39C190.978 419.345 188.132 430.139 187.186 436.379C184.705 452.737 175.473 454.737 156.083 443.121C147.473 437.959 135.655 432.125 129.827 430.151C123.741 428.094 117.261 422.928 114.599 418.021C112.054 413.322 101.069 404.034 90.1889 397.38C69.935 384.996 64.9384 384.303 63.325 369.378C61.7117 354.453 73.0053 343.551 77.0388 336.842C81.0723 330.132 80.6689 315.637 84.299 303.386C87.9291 291.136 97.6095 276.879 102.046 268.912C104.452 264.592 109.895 235.848 114.55 224.644C118.481 215.183 126.247 229.257 126.247 229.257C126.247 229.257 143.531 282.326 145.529 308.975C147.274 332.208 156.347 349.62 177.779 370.876C187.556 380.57 192.984 386.844 195.22 392.744ZM148.431 379.792C146.256 374.829 130.583 352.536 129.827 346.247C129.071 339.957 129.827 326.119 129.071 321.087C128.315 316.056 120.601 288.381 111.324 289.639C102.046 290.896 102.853 316.475 102.046 325.281C101.239 334.086 97.6347 363.64 119.794 389.856C129.373 401.203 146.041 413.69 152.062 411.66C158.76 409.402 150.607 384.755 148.431 379.792ZM148.431 401.11C145.291 412.747 130.283 392.241 123.424 384.824C99.7462 359.222 106.08 336.183 106.08 328.635C106.08 321.087 107.29 298.444 112.534 298.025C117.777 297.606 123.424 317.314 124.231 323.603C125.037 329.893 123.021 340.376 124.231 348.343C125.441 356.31 150.425 393.722 148.431 401.11Z" fill="#FFBD59"/>
<path d="M285.5 950.611C288 939.611 292.583 908.235 291.937 896.088C286.5 850.555 250 879.611 250 879.611C240.5 890.611 255.481 935.789 237.241 937.615C219 939.442 222.724 895.611 205 895.611C192.844 895.611 190.5 908.111 189.5 914.611C188.5 921.111 195.991 976.382 191.918 1025.63C187.579 1078.12 178.751 1098.58 154.735 1111.8C125.746 1127.76 82.4542 1121.21 48.2198 1095.69C38.3292 1088.32 22.35 1078.35 12.7094 1073.53C6.76144 1070.56 2.81873 1068.37 0.188524 1066.18L0.188524 1071.46C7.86561 1074.47 24.9385 1085.08 33.5479 1092.55C59.3917 1115.01 106.084 1130.94 131.813 1126.09C154.907 1121.73 172.131 1110.23 181.699 1092.77C192.991 1072.16 195.225 1062.1 198.652 1016.53C202.84 960.884 188.5 908.111 202 902.611C215.5 897.111 211.254 947.802 238 944.111C264.746 940.42 244.5 889.611 255 882.611C255 882.611 286.5 862.172 286.5 899.611C286.5 926.947 269.887 991.611 264.694 991.611C259.5 991.611 260.917 977.825 253 971.611C245.083 965.397 242.078 970.255 222.5 983.611C204.469 995.905 223.97 1007.69 217.543 1066.71C212.392 1114.05 205.386 1133.66 188.975 1146.69C175.636 1157.28 173.688 1157.51 126.662 1154.32C95.5999 1152.2 125.136 1206.27 160.876 1216.94C174.188 1220.91 195.954 1213.83 208.673 1201.4C224.819 1185.61 235.912 1154.51 241.928 1108.2C249.428 1050.4 256.819 1023.38 264.694 1024.97C273.11 1026.66 287.996 1057.55 287.996 1073.32C287.996 1080.54 282.157 1101.13 275.017 1119.08C259.569 1157.92 259.105 1167.77 271.308 1197.95C277.23 1212.59 280.579 1228.2 280.579 1241.17C280.579 1260.92 279.996 1262.04 258.866 1282.78C246.923 1294.5 235.241 1307.88 232.902 1312.52C230.569 1317.16 228.657 1336.37 228.657 1355.21C228.657 1402.6 227.032 1404.45 185.371 1404.45C156.35 1404.45 137 1401.28 119.5 1404.45C102 1407.62 76.2969 1438.11 61.7614 1451.11C47.226 1464.11 2.80308 1533.84 0.1885 1536.11L0.188507 1551.11C2.86729 1546.19 45.4884 1476.33 85.5 1439.36C112.469 1414.45 115.5 1413.11 126 1410.24C136.5 1407.37 170.819 1410.24 189.511 1410.24C219.725 1410.24 221.345 1409.8 227.642 1399.78C232.465 1392.13 234.313 1381.04 234.569 1358.29C234.761 1341.22 235.178 1324.19 235.496 1320.44C235.813 1316.7 247.095 1302.66 260.563 1289.25C291.136 1258.81 293.912 1245.88 279.043 1203.27C266.683 1167.85 266.959 1153.04 280.579 1120.75C294.944 1086.69 295.553 1060.71 282.532 1037.58C260.277 998.069 248.688 1014.87 237.616 1102.71C233.751 1133.34 229.074 1152.75 221.465 1169.69C202.183 1212.61 171.657 1224.07 141.152 1199.86C129.407 1190.54 117.392 1172.3 117.392 1163.79C117.392 1161.73 131.022 1160.38 148.595 1160.7C174.949 1161.19 181.433 1160.02 190.319 1153.22C207.881 1139.76 217.428 1117.14 221.412 1079.52C229.032 1007.71 208.786 997.439 228.844 986.647C245.839 977.497 245 975.111 250.199 979.663C255.398 984.215 256.777 1001.11 266 1000.61C275.223 1000.11 283 961.611 285.5 950.611ZM194.36 781.915C193.98 773.329 192.027 764.038 188.496 754.059C170.845 704.233 151.72 663.287 139.147 648.413C125.73 632.552 125.543 632.476 100.204 632.807C86.199 632.991 61.1521 634.525 44.5427 636.222C27.9333 637.918 9.99584 638.173 4.67292 636.78C2.82396 636.298 1.40208 635.815 0.188543 635.219L0.188543 642.239L14.751 644.136C27.5427 645.8 46.1417 644.434 67.5635 640.255C124.996 629.056 132.928 634.851 165.412 711.762C183.105 753.647 187.86 769.003 187.86 784.273C187.86 807.944 176.939 823.447 151.256 836.223C129.647 846.972 122.454 861.45 117.136 904.874C110.621 958.114 103.61 974.707 84.4073 982.35C71.2823 987.575 52.8864 979.786 31.376 959.903C21.1312 950.433 8.75624 941.105 3.87603 939.175C2.40207 938.59 1.22499 937.977 0.18853 937.294L0.188529 943.978C7.46978 946.693 21.3083 956.504 28.3812 964.429C40.5167 978.029 62.3864 989.51 76.1625 989.51C90.1 989.51 108.272 973.872 113.314 957.54C115.423 950.71 119.704 927.017 122.834 904.879C125.959 882.747 131.131 860.496 134.319 855.422C137.511 850.354 147.11 843.042 155.647 839.177C182.491 827.014 195.496 807.662 194.36 781.915ZM188.407 1306.94C188.084 1298.5 183.683 1289.32 175.251 1280.55C161.22 1265.95 155.381 1264.74 139.647 1273.21C115.251 1286.34 114.902 1305.08 138.72 1323.26C159.371 1339.03 162.767 1339.53 177.09 1328.92C184.97 1323.08 188.725 1315.38 188.407 1306.94ZM183.746 1306.4C183.845 1313.83 178.938 1320.59 168.772 1328.55C163.694 1332.52 159.866 1331.35 145.996 1321.61C127.147 1308.37 124.511 1303.8 128.798 1291.8C135.798 1272.2 160.48 1269.62 174.548 1287.02C180.563 1294.46 183.668 1300.63 183.746 1306.4ZM135.855 766.727C135.72 729.086 111.34 688.373 89.0167 688.497C76.5948 688.568 72.7667 690.937 64.3292 703.772C54.9646 718.012 56.5271 734.941 68.8083 752.335C74.725 760.715 82.4073 777.99 85.8812 790.729C89.3552 803.467 95.251 817.202 98.9906 821.252C105.491 828.293 106.215 828.32 115.605 821.913C128.881 812.861 135.954 793.591 135.855 766.727ZM131.011 774.261C130.6 788.582 127.017 801.765 119.595 810.747C107.444 825.447 100.532 820.444 91.975 790.761C87.9385 776.749 80.5583 759.718 75.5844 752.915C65.3344 738.903 62.1885 728.804 64.3656 716.906C65.1885 712.391 69.8812 704.77 74.7927 699.967C82.7562 692.183 84.9177 691.755 94.725 695.983C117.465 705.783 131.918 742.768 131.011 774.261ZM101.897 1276.58C102.798 1260.11 93.6729 1247.6 72.2979 1228.39C61.4021 1218.6 45.8135 1200.57 37.6521 1188.32C29.4958 1176.07 16.5583 1158.7 8.91248 1149.72C5.24581 1145.42 2.3604 1141.47 0.188521 1137.8L0.18852 1147.51C0.448936 1147.71 0.667687 1147.85 0.954146 1148.1C4.23019 1150.93 13.6781 1163.74 21.9489 1176.56C30.2198 1189.38 49.1781 1212.19 64.0739 1227.23C78.9698 1242.27 92.8031 1259.09 94.8135 1264.6C99.1937 1276.59 95.6937 1291.17 82.8812 1314.35C77.7823 1323.57 69.2718 1343.82 63.9645 1359.36C47.5427 1407.46 14.8291 1456.63 0.188504 1468.61L0.1885 1486.61C1.63121 1484.04 29.6208 1444.82 33.6208 1439.36C40.5531 1429.91 53.2198 1403.43 61.7614 1380.5C70.3083 1357.59 82.9802 1327.11 89.9281 1312.77C97.2041 1297.75 101.355 1286.45 101.897 1276.58ZM57.6312 852.761C57.6208 849.931 57.3187 846.614 56.8448 842.44C53.1729 810.183 26.1729 777.275 3.34479 777.231C2.1052 777.231 1.1 777.123 0.188537 776.955L0.188536 781.763C1.51145 781.909 3.1052 782.245 5.20416 782.766C22.0219 786.923 33.3708 797.678 44.3552 819.875C60.1312 851.753 53.8708 870.914 22.8187 885.756C11.1573 891.328 4.21978 893.794 0.188532 892.618L0.188531 899.714L15.0062 895.231C29.1521 890.949 38.5167 885.024 46.975 874.996C55.126 865.331 57.6729 861.25 57.6312 852.761ZM16.9073 1301.43C17.1052 1291.53 14.7406 1287.87 6.58955 1278.21C3.86559 1274.98 1.78747 1272.39 0.188515 1269.86L0.188515 1279.72C2.38122 1281.34 5.50622 1285.6 7.9958 1290.6C13.3031 1301.29 13.1416 1304.93 5.92289 1336.92C3.86559 1346.05 1.84997 1354.26 0.188511 1360.47L0.18851 1376.16C1.3083 1372.16 2.62601 1367.95 4.19372 1363.42C9.46455 1348.22 14.7614 1325.92 15.975 1313.86C16.4906 1308.72 16.8396 1304.73 16.9073 1301.43Z" fill="#FFBD59"/>
<path fill-rule="evenodd" clip-rule="evenodd" d="M20.6184 435.1C9.89544 414.065 3.64369 400.93 2.9042e-05 390.326L2.96944e-05 405.843C3.47917 412.52 9.05347 423.519 15.3634 436.268C25.0604 455.848 33.0059 473.21 33.0349 474.851C33.1414 482.364 21.0103 489.672 8.42443 489.672L3.32191e-05 489.672L3.35025e-05 496.413C1.00167 496.235 2.14362 496.144 3.56624 496.144C14.2553 496.144 30.4413 490.409 33.8139 485.423C39.2093 477.446 36.0447 465.361 20.6184 435.1ZM25.3363 543.263L3.54657e-05 543.104L3.56448e-05 547.363L30.7509 548.431C44.877 548.922 53.1012 549.012 61.0726 550.538C74.6429 553.134 87.4805 559.889 127.456 579.86C143.525 587.887 151.945 590 167.865 590C185.72 590 188.628 589.059 193.849 581.578C199.371 573.665 199.371 571.929 193.927 552.731C190.738 541.491 188.13 528.483 188.13 523.824C188.13 510.539 172.588 485.059 156.692 472.274C148.345 465.565 129.662 456.184 112.624 450.144C45.4948 426.355 31.0897 385.349 63.394 310.047C72.5975 288.589 78.0508 270.046 79.575 255.024C83.8622 212.51 90.5935 178.078 101.437 143.351C112.28 108.624 94.9756 78.8469 92.1585 64.5873C89.3415 50.3278 89.3415 29.7773 79.2805 19.7117C69.2195 9.64617 60.7683 19.2923 44.2683 18.8729C27.7683 18.4535 1.26302e-05 1.83442e-05 1.26302e-05 1.83442e-05L1.29476e-05 7.54918C0.0933125 8.00427 25.3701 23.4863 43.4634 24.7445C61.5567 26.0027 66.8049 17.1953 75.2561 24.7445C83.7073 32.2937 83.7073 49.9084 86.5244 62.4903C89.3415 75.0723 105.506 110.721 98.5725 134.643C91.6391 158.564 81.8009 193.72 76.3427 239.821C72.37 273.35 69.2199 285.867 59.2083 307.811C24.9734 382.877 41.4495 430.732 109.615 454.162C156.803 470.388 175.113 489.422 184.757 532.278C193.133 569.497 192.296 580.992 180.925 584.723C165.276 589.859 142.582 584.073 112.131 567.188C75.7329 547.004 63.0358 543.504 25.3363 543.263Z" fill="#FFBD59"/>
<path d="M5.90341 314.901L2.62718e-05 324.441L2.6657e-05 333.604C1.78073 330.063 4.13242 326.245 7.43252 321.373C29.6381 288.685 34.351 268.791 34.6704 206.478C34.9462 152.147 35.0866 151.141 46.0708 126.13C52.9468 110.472 56.793 94.2425 56.3415 85.9766C55.89 77.7107 44.2683 66.2649 33.8049 59.9739C23.3415 53.683 1.43231e-05 40.2622 1.43231e-05 40.2622L1.46758e-05 48.6502C1.46758e-05 48.6502 50.7073 67.5231 51.9146 86.165C53.122 104.807 46.5837 114.726 41.9626 124.307C28.8832 151.496 24.654 177.772 29.3187 202.906C35.4689 236.076 25.6702 282.926 5.90341 314.901Z" fill="#FFBD59"/>
</svg>
