<svg width="1067" height="238" viewBox="0 0 1067 238" fill="none" xmlns="http://www.w3.org/2000/svg">
<path d="M56.6267 171.28C47.0267 171.28 39.4534 169.253 33.9067 165.2C28.4312 161.147 25.4801 155.493 25.0534 148.24H43.9334C44.5023 151.084 45.8534 153.182 47.9867 154.533C50.1912 155.884 53.3556 156.56 57.4801 156.56C63.8801 156.56 67.0801 154.889 67.0801 151.547C67.0801 150.196 66.5823 149.129 65.5867 148.347C64.6623 147.493 63.0978 146.853 60.8934 146.427L46.6001 143.653C33.5156 141.093 26.9734 134.978 26.9734 125.307C26.9734 119.049 29.4978 114.071 34.5467 110.373C39.5956 106.604 46.5645 104.72 55.4534 104.72C64.3423 104.72 71.3467 106.64 76.4667 110.48C81.5867 114.32 84.3601 119.724 84.7867 126.693H65.9067C65.1956 123.92 63.9156 121.929 62.0667 120.72C60.289 119.44 57.6578 118.8 54.1734 118.8C51.329 118.8 49.1245 119.191 47.5601 119.973C46.0667 120.756 45.3201 121.929 45.3201 123.493C45.3201 124.631 45.7823 125.591 46.7067 126.373C47.6312 127.156 49.0178 127.724 50.8667 128.08L65.5867 130.96C72.4134 132.311 77.4267 134.516 80.6267 137.573C83.8267 140.631 85.4267 144.756 85.4267 149.947C85.4267 156.631 82.9378 161.858 77.9601 165.627C73.0534 169.396 65.9423 171.28 56.6267 171.28ZM116.09 171.173C108.41 171.173 102.401 169.36 98.0634 165.733C93.7967 162.036 91.6634 157.129 91.6634 151.013C91.6634 144.684 93.9034 139.813 98.3834 136.4C102.935 132.916 109.406 131.173 117.797 131.173H134.97V128.827C134.97 122.996 131.272 120.08 123.877 120.08C117.335 120.08 113.352 122.284 111.93 126.693H92.5167C94.0101 119.44 97.3878 113.964 102.65 110.267C107.912 106.569 114.952 104.72 123.77 104.72C133.512 104.72 140.943 106.889 146.063 111.227C151.183 115.493 153.743 121.751 153.743 130V150.8H162.917V170H143.29V159.333H138.81C136.606 163.173 133.69 166.124 130.063 168.187C126.437 170.178 121.779 171.173 116.09 171.173ZM119.077 156.453C122.206 156.453 124.943 155.92 127.29 154.853C129.708 153.787 131.592 152.329 132.943 150.48C134.295 148.631 134.97 146.569 134.97 144.293V143.973H118.65C113.175 143.973 110.437 146 110.437 150.053C110.437 152.116 111.183 153.716 112.677 154.853C114.241 155.92 116.375 156.453 119.077 156.453ZM174.608 170V125.2H165.008V106H184.635V116.667H189.115C191.533 112.898 194.555 109.982 198.182 107.92C201.88 105.858 206.466 104.827 211.942 104.827C217.133 104.827 221.542 105.716 225.168 107.493C228.866 109.2 231.853 111.724 234.128 115.067H234.555C239.604 108.24 246.857 104.827 256.315 104.827C264.777 104.827 271.462 107.28 276.368 112.187C281.346 117.093 283.835 123.671 283.835 131.92V170H264.208V135.76C264.208 126.8 260.013 122.32 251.622 122.32C243.231 122.32 239.035 126.8 239.035 135.76V170H219.408V135.76C219.408 126.8 215.142 122.32 206.608 122.32C202.484 122.32 199.391 123.422 197.328 125.627C195.266 127.831 194.235 131.209 194.235 135.76V170H174.608ZM323.777 171.173C314.603 171.173 307.635 168.827 302.87 164.133C298.106 159.369 295.723 152.898 295.723 144.72V106H315.35V140.88C315.35 145.218 316.417 148.453 318.55 150.587C320.755 152.649 324.061 153.68 328.47 153.68C333.092 153.68 336.612 152.542 339.03 150.267C341.448 147.92 342.657 144.578 342.657 140.24V106H362.283V150.8H371.883V170H352.257V159.333H347.777C345.146 163.173 342.017 166.124 338.39 168.187C334.763 170.178 329.892 171.173 323.777 171.173ZM407.813 171.28C401.129 171.28 395.476 169.893 390.853 167.12C386.302 164.276 382.853 160.364 380.507 155.387C378.16 150.338 376.987 144.542 376.987 138C376.987 131.387 378.125 125.591 380.4 120.613C382.676 115.564 385.982 111.653 390.32 108.88C394.729 106.107 399.991 104.72 406.107 104.72C410.658 104.72 414.569 105.573 417.84 107.28C421.111 108.916 423.636 111.227 425.413 114.213H425.84V80.4H445.467V150.8H455.067V170H435.44V159.333H430.96C428.685 163.102 425.591 166.053 421.68 168.187C417.84 170.249 413.218 171.28 407.813 171.28ZM411.547 154.213C415.956 154.213 419.44 153.004 422 150.587C424.56 148.098 425.84 144.684 425.84 140.347V135.653C425.84 131.316 424.56 127.938 422 125.52C419.44 123.031 415.956 121.787 411.547 121.787C406.498 121.787 402.729 123.244 400.24 126.16C397.822 129.076 396.613 133.022 396.613 138C396.613 142.978 397.822 146.924 400.24 149.84C402.729 152.756 406.498 154.213 411.547 154.213ZM469.837 170V125.2H460.237V106H479.863V118.8H484.343C485.979 114.178 488.646 110.764 492.343 108.56C496.041 106.284 500.166 105.147 504.717 105.147H510.157V122.213H503.863C498.601 122.213 494.797 123.671 492.45 126.587C490.175 129.502 489.037 133.307 489.037 138V170H469.837ZM538.465 171.173C530.785 171.173 524.776 169.36 520.438 165.733C516.172 162.036 514.038 157.129 514.038 151.013C514.038 144.684 516.278 139.813 520.758 136.4C525.31 132.916 531.781 131.173 540.172 131.173H557.345V128.827C557.345 122.996 553.647 120.08 546.252 120.08C539.71 120.08 535.727 122.284 534.305 126.693H514.892C516.385 119.44 519.763 113.964 525.025 110.267C530.287 106.569 537.327 104.72 546.145 104.72C555.887 104.72 563.318 106.889 568.438 111.227C573.558 115.493 576.118 121.751 576.118 130V150.8H585.292V170H565.665V159.333H561.185C558.981 163.173 556.065 166.124 552.438 168.187C548.812 170.178 544.154 171.173 538.465 171.173ZM541.452 156.453C544.581 156.453 547.318 155.92 549.665 154.853C552.083 153.787 553.967 152.329 555.318 150.48C556.67 148.631 557.345 146.569 557.345 144.293V143.973H541.025C535.55 143.973 532.812 146 532.812 150.053C532.812 152.116 533.558 153.716 535.052 154.853C536.616 155.92 538.75 156.453 541.452 156.453ZM600.175 170V121.36H589.295V106H600.388V95.76C600.388 90.4978 601.74 86.6222 604.442 84.1333C607.215 81.6444 611.126 80.4 616.175 80.4H634.735V95.76H619.588V106H633.455V121.36H619.802V170H600.175ZM647.108 170V125.2H637.508V106H657.135V116.667H661.615C664.033 112.898 667.055 109.982 670.682 107.92C674.38 105.858 678.966 104.827 684.442 104.827C689.633 104.827 694.042 105.716 697.668 107.493C701.366 109.2 704.353 111.724 706.628 115.067H707.055C712.104 108.24 719.357 104.827 728.815 104.827C737.277 104.827 743.962 107.28 748.868 112.187C753.846 117.093 756.335 123.671 756.335 131.92V170H736.708V135.76C736.708 126.8 732.513 122.32 724.122 122.32C715.731 122.32 711.535 126.8 711.535 135.76V170H691.908V135.76C691.908 126.8 687.642 122.32 679.108 122.32C674.984 122.32 671.891 123.422 669.828 125.627C667.766 127.831 666.735 131.209 666.735 135.76V170H647.108ZM831.032 171.28C824.347 171.28 818.445 169.929 813.325 167.227C808.276 164.453 804.294 160.578 801.378 155.6C798.534 150.622 797.112 144.756 797.112 138C797.112 131.244 798.534 125.378 801.378 120.4C804.223 115.422 808.205 111.582 813.325 108.88C818.445 106.107 824.347 104.72 831.032 104.72C839.707 104.72 846.818 106.924 852.365 111.333C857.983 115.742 861.432 121.716 862.712 129.253H843.085C842.232 126.907 840.774 125.093 838.712 123.813C836.721 122.462 834.161 121.787 831.032 121.787C826.836 121.787 823.387 123.209 820.685 126.053C818.054 128.827 816.738 132.809 816.738 138C816.738 143.191 818.09 147.209 820.792 150.053C823.494 152.827 826.907 154.213 831.032 154.213C837.787 154.213 841.912 151.404 843.405 145.787H863.032C861.894 153.68 858.552 159.902 853.005 164.453C847.458 169.004 840.134 171.28 831.032 171.28ZM901.473 171.28C894.433 171.28 888.282 169.929 883.02 167.227C877.758 164.453 873.669 160.578 870.753 155.6C867.909 150.551 866.487 144.649 866.487 137.893C866.487 131.138 867.909 125.271 870.753 120.293C873.669 115.316 877.758 111.476 883.02 108.773C888.282 106.071 894.469 104.72 901.58 104.72C908.691 104.72 914.807 106.071 919.927 108.773C925.118 111.476 929.136 115.316 931.98 120.293C934.825 125.271 936.247 131.173 936.247 138C936.247 144.756 934.825 150.658 931.98 155.707C929.136 160.684 925.118 164.524 919.927 167.227C914.736 169.929 908.585 171.28 901.473 171.28ZM901.473 154.213C906.38 154.213 910.113 152.756 912.673 149.84C915.305 146.853 916.62 142.871 916.62 137.893C916.62 132.916 915.305 129.004 912.673 126.16C910.113 123.244 906.38 121.787 901.473 121.787C896.496 121.787 892.691 123.244 890.06 126.16C887.429 129.004 886.113 132.916 886.113 137.893C886.113 142.871 887.429 146.853 890.06 149.84C892.691 152.756 896.496 154.213 901.473 154.213ZM950.983 170V125.2H941.383V106H961.01V116.667H965.49C967.908 112.898 970.93 109.982 974.557 107.92C978.255 105.858 982.841 104.827 988.317 104.827C993.508 104.827 997.917 105.716 1001.54 107.493C1005.24 109.2 1008.23 111.724 1010.5 115.067H1010.93C1015.98 108.24 1023.23 104.827 1032.69 104.827C1041.15 104.827 1047.84 107.28 1052.74 112.187C1057.72 117.093 1060.21 123.671 1060.21 131.92V170H1040.58V135.76C1040.58 126.8 1036.39 122.32 1028 122.32C1019.61 122.32 1015.41 126.8 1015.41 135.76V170H995.783V135.76C995.783 126.8 991.517 122.32 982.983 122.32C978.859 122.32 975.766 123.422 973.703 125.627C971.641 127.831 970.61 131.209 970.61 135.76V170H950.983Z" fill="white"/>
<path d="M770.058 170V152.464H786.314V170H770.058Z" fill="#F91E5A"/>
<path d="M769 170V152H787V170H769Z" fill="#F91E5A"/>
<path d="M41.0001 92.7666L41.0001 75L0.000144958 75L0.000146512 92.7666L41.0001 92.7666Z" fill="#F91E5A"/>
<path d="M17.7666 75.0001L0 75.0001L5.37649e-06 116L17.7666 116L17.7666 75.0001Z" fill="#F91E5A"/>
<path d="M279.554 222V208.014L266.54 185.928H272.102L282.092 203.37L292.028 185.928H297.59L284.63 208.014V222H279.554ZM308.379 222.648C306.831 222.648 305.301 222.378 303.789 221.838C302.277 221.298 300.891 220.47 299.631 219.354C298.407 218.202 297.417 216.744 296.661 214.98C295.905 213.216 295.527 211.128 295.527 208.716C295.527 206.304 295.905 204.216 296.661 202.452C297.417 200.688 298.407 199.248 299.631 198.132C300.891 196.98 302.277 196.134 303.789 195.594C305.301 195.054 306.831 194.784 308.379 194.784C309.927 194.784 311.457 195.054 312.969 195.594C314.517 196.134 315.903 196.98 317.127 198.132C318.387 199.248 319.377 200.688 320.097 202.452C320.853 204.216 321.231 206.304 321.231 208.716C321.231 211.128 320.853 213.216 320.097 214.98C319.377 216.744 318.387 218.202 317.127 219.354C315.903 220.47 314.517 221.298 312.969 221.838C311.457 222.378 309.927 222.648 308.379 222.648ZM308.379 218.652C309.675 218.652 310.935 218.31 312.159 217.626C313.383 216.906 314.391 215.826 315.183 214.386C315.975 212.91 316.371 211.02 316.371 208.716C316.371 206.412 315.975 204.54 315.183 203.1C314.391 201.624 313.383 200.544 312.159 199.86C310.935 199.14 309.675 198.78 308.379 198.78C307.119 198.78 305.859 199.14 304.599 199.86C303.375 200.544 302.367 201.624 301.575 203.1C300.783 204.54 300.387 206.412 300.387 208.716C300.387 211.02 300.783 212.91 301.575 214.386C302.367 215.826 303.375 216.906 304.599 217.626C305.859 218.31 307.119 218.652 308.379 218.652ZM335.528 222.648C333.44 222.648 331.766 222.216 330.506 221.352C329.246 220.452 328.328 219.228 327.752 217.68C327.212 216.096 326.942 214.296 326.942 212.28V195.162H331.478V211.2C331.478 213.18 331.712 214.71 332.18 215.79C332.648 216.87 333.296 217.626 334.124 218.058C334.988 218.454 335.978 218.652 337.094 218.652C339.218 218.652 340.874 217.914 342.062 216.438C343.286 214.926 343.898 212.748 343.898 209.904V195.162H348.434V222H345.032L343.898 218.112C343.142 219.408 342.116 220.488 340.82 221.352C339.524 222.216 337.76 222.648 335.528 222.648ZM356.001 222V195.216H359.295L360.753 200.184C361.689 198.564 362.949 197.268 364.533 196.296C366.153 195.288 368.079 194.784 370.311 194.784V199.482C370.059 199.482 369.789 199.482 369.501 199.482C369.249 199.482 368.997 199.5 368.745 199.536C365.685 199.788 363.543 200.85 362.319 202.722C361.131 204.594 360.537 207.186 360.537 210.498V222H356.001ZM398.613 222.648C397.065 222.648 395.535 222.414 394.023 221.946C392.547 221.442 391.215 220.704 390.027 219.732C388.875 218.724 387.993 217.464 387.381 215.952L391.755 214.332C392.151 215.916 393.015 217.068 394.347 217.788C395.715 218.472 397.137 218.814 398.613 218.814C399.693 218.814 400.701 218.652 401.637 218.328C402.609 218.004 403.401 217.536 404.013 216.924C404.625 216.312 404.931 215.61 404.931 214.818C404.931 213.342 404.337 212.298 403.149 211.686C401.997 211.074 400.611 210.606 398.991 210.282L395.265 209.526C393.969 209.238 392.763 208.842 391.647 208.338C390.531 207.798 389.631 207.042 388.947 206.07C388.263 205.098 387.921 203.802 387.921 202.182C387.921 200.562 388.425 199.212 389.433 198.132C390.441 197.016 391.719 196.17 393.267 195.594C394.851 195.018 396.507 194.73 398.235 194.73C400.359 194.73 402.357 195.18 404.229 196.08C406.137 196.944 407.487 198.312 408.279 200.184L404.013 201.75C403.545 200.67 402.717 199.878 401.529 199.374C400.377 198.834 399.171 198.564 397.911 198.564C396.543 198.564 395.301 198.87 394.185 199.482C393.069 200.094 392.511 200.976 392.511 202.128C392.511 203.28 392.979 204.126 393.915 204.666C394.887 205.17 396.075 205.566 397.479 205.854L400.989 206.556C402.429 206.844 403.797 207.258 405.093 207.798C406.389 208.338 407.451 209.148 408.279 210.228C409.107 211.272 409.521 212.748 409.521 214.656C409.521 216.348 408.999 217.788 407.955 218.976C406.911 220.164 405.561 221.082 403.905 221.73C402.249 222.342 400.485 222.648 398.613 222.648ZM423.059 222C421.367 222 420.053 221.838 419.117 221.514C418.217 221.154 417.587 220.488 417.227 219.516C416.903 218.544 416.741 217.14 416.741 215.304V198.834H412.205V195.216H416.741V188.466H421.277V195.216H426.461V198.834H421.277V214.548C421.277 215.916 421.403 216.834 421.655 217.302C421.943 217.77 422.735 218.004 424.031 218.004H426.461V222H423.059ZM440.891 222.648C438.803 222.648 437.129 222.216 435.869 221.352C434.609 220.452 433.691 219.228 433.115 217.68C432.575 216.096 432.305 214.296 432.305 212.28V195.162H436.841V211.2C436.841 213.18 437.075 214.71 437.543 215.79C438.011 216.87 438.659 217.626 439.487 218.058C440.351 218.454 441.341 218.652 442.457 218.652C444.581 218.652 446.237 217.914 447.425 216.438C448.649 214.926 449.261 212.748 449.261 209.904V195.162H453.797V222H450.395L449.261 218.112C448.505 219.408 447.479 220.488 446.183 221.352C444.887 222.216 443.123 222.648 440.891 222.648ZM471.138 222.648C469.122 222.648 467.232 222.108 465.468 221.028C463.704 219.912 462.282 218.328 461.202 216.276C460.158 214.188 459.636 211.668 459.636 208.716C459.636 205.764 460.158 203.262 461.202 201.21C462.282 199.122 463.704 197.538 465.468 196.458C467.232 195.342 469.122 194.784 471.138 194.784C473.262 194.784 475.044 195.216 476.484 196.08C477.924 196.908 479.04 198.024 479.832 199.428V185.928H484.368V211.902C484.368 212.802 484.404 214.134 484.476 215.898C484.548 217.626 484.818 219.66 485.286 222H481.02L479.832 217.95C479.04 219.39 477.924 220.542 476.484 221.406C475.044 222.234 473.262 222.648 471.138 222.648ZM472.326 218.76C474.63 218.76 476.466 217.878 477.834 216.114C479.238 214.35 479.94 211.884 479.94 208.716C479.94 205.512 479.238 203.046 477.834 201.318C476.466 199.554 474.63 198.672 472.326 198.672C470.022 198.672 468.168 199.554 466.764 201.318C465.396 203.046 464.712 205.512 464.712 208.716C464.712 211.884 465.396 214.35 466.764 216.114C468.168 217.878 470.022 218.76 472.326 218.76ZM490.063 230.694V226.698H491.899C493.195 226.698 494.185 226.59 494.869 226.374C495.553 226.194 496.093 225.762 496.489 225.078C496.921 224.43 497.335 223.422 497.731 222.054L488.065 195.27H493.087L499.675 215.898L506.263 195.27H511.231L501.727 223.188C501.079 225.096 500.413 226.59 499.729 227.67C499.081 228.786 498.199 229.56 497.083 229.992C495.967 230.46 494.401 230.694 492.385 230.694H490.063ZM513.645 229.182L516.183 222.594C515.355 222.45 514.653 222.054 514.077 221.406C513.537 220.758 513.267 220.002 513.267 219.138C513.267 218.202 513.609 217.392 514.293 216.708C514.977 216.024 515.787 215.682 516.723 215.682C517.695 215.682 518.523 216.024 519.207 216.708C519.891 217.392 520.233 218.202 520.233 219.138C520.233 219.57 520.143 220.02 519.963 220.488L516.615 229.182H513.645ZM539.422 230.694V226.698H541.258C542.554 226.698 543.544 226.59 544.228 226.374C544.912 226.194 545.452 225.762 545.848 225.078C546.28 224.43 546.694 223.422 547.09 222.054L537.424 195.27H542.446L549.034 215.898L555.622 195.27H560.59L551.086 223.188C550.438 225.096 549.772 226.59 549.088 227.67C548.44 228.786 547.558 229.56 546.442 229.992C545.326 230.46 543.76 230.694 541.744 230.694H539.422ZM575.478 222.648C573.93 222.648 572.4 222.378 570.888 221.838C569.376 221.298 567.99 220.47 566.73 219.354C565.506 218.202 564.516 216.744 563.76 214.98C563.004 213.216 562.626 211.128 562.626 208.716C562.626 206.304 563.004 204.216 563.76 202.452C564.516 200.688 565.506 199.248 566.73 198.132C567.99 196.98 569.376 196.134 570.888 195.594C572.4 195.054 573.93 194.784 575.478 194.784C577.026 194.784 578.556 195.054 580.068 195.594C581.616 196.134 583.002 196.98 584.226 198.132C585.486 199.248 586.476 200.688 587.196 202.452C587.952 204.216 588.33 206.304 588.33 208.716C588.33 211.128 587.952 213.216 587.196 214.98C586.476 216.744 585.486 218.202 584.226 219.354C583.002 220.47 581.616 221.298 580.068 221.838C578.556 222.378 577.026 222.648 575.478 222.648ZM575.478 218.652C576.774 218.652 578.034 218.31 579.258 217.626C580.482 216.906 581.49 215.826 582.282 214.386C583.074 212.91 583.47 211.02 583.47 208.716C583.47 206.412 583.074 204.54 582.282 203.1C581.49 201.624 580.482 200.544 579.258 199.86C578.034 199.14 576.774 198.78 575.478 198.78C574.218 198.78 572.958 199.14 571.698 199.86C570.474 200.544 569.466 201.624 568.674 203.1C567.882 204.54 567.486 206.412 567.486 208.716C567.486 211.02 567.882 212.91 568.674 214.386C569.466 215.826 570.474 216.906 571.698 217.626C572.958 218.31 574.218 218.652 575.478 218.652ZM602.627 222.648C600.539 222.648 598.865 222.216 597.605 221.352C596.345 220.452 595.427 219.228 594.851 217.68C594.311 216.096 594.041 214.296 594.041 212.28V195.162H598.577V211.2C598.577 213.18 598.811 214.71 599.279 215.79C599.747 216.87 600.395 217.626 601.223 218.058C602.087 218.454 603.077 218.652 604.193 218.652C606.317 218.652 607.973 217.914 609.161 216.438C610.385 214.926 610.997 212.748 610.997 209.904V195.162H615.533V222H612.131L610.997 218.112C610.241 219.408 609.215 220.488 607.919 221.352C606.623 222.216 604.859 222.648 602.627 222.648ZM623.1 222V195.216H626.394L627.852 200.184C628.788 198.564 630.048 197.268 631.632 196.296C633.252 195.288 635.178 194.784 637.41 194.784V199.482C637.158 199.482 636.888 199.482 636.6 199.482C636.348 199.482 636.096 199.5 635.844 199.536C632.784 199.788 630.642 200.85 629.418 202.722C628.23 204.594 627.636 207.186 627.636 210.498V222H623.1ZM656.587 222V195.216H659.935L661.123 199.266C661.879 198.006 662.905 196.944 664.201 196.08C665.533 195.216 667.189 194.784 669.169 194.784C671.221 194.784 672.877 195.198 674.137 196.026C675.397 196.854 676.315 198.006 676.891 199.482C677.971 197.826 679.267 196.638 680.779 195.918C682.327 195.162 684.037 194.784 685.909 194.784C689.005 194.784 691.219 195.738 692.551 197.646C693.883 199.518 694.549 201.984 694.549 205.044V222H690.013V206.394C690.013 205.026 689.869 203.766 689.581 202.614C689.329 201.426 688.789 200.472 687.961 199.752C687.169 199.032 685.945 198.672 684.289 198.672C682.345 198.672 680.779 199.428 679.591 200.94C678.439 202.416 677.863 204.594 677.863 207.474V222H673.327V206.394C673.327 205.026 673.183 203.766 672.895 202.614C672.643 201.426 672.103 200.472 671.275 199.752C670.483 199.032 669.259 198.672 667.603 198.672C665.659 198.672 664.093 199.428 662.905 200.94C661.717 202.416 661.123 204.594 661.123 207.474V222H656.587ZM710.469 222.648C708.381 222.648 706.707 222.216 705.447 221.352C704.187 220.452 703.269 219.228 702.693 217.68C702.153 216.096 701.883 214.296 701.883 212.28V195.162H706.419V211.2C706.419 213.18 706.653 214.71 707.121 215.79C707.589 216.87 708.237 217.626 709.065 218.058C709.929 218.454 710.919 218.652 712.035 218.652C714.159 218.652 715.815 217.914 717.003 216.438C718.227 214.926 718.839 212.748 718.839 209.904V195.162H723.375V222H719.973L718.839 218.112C718.083 219.408 717.057 220.488 715.761 221.352C714.465 222.216 712.701 222.648 710.469 222.648ZM740.068 222.648C738.52 222.648 736.99 222.414 735.478 221.946C734.002 221.442 732.67 220.704 731.482 219.732C730.33 218.724 729.448 217.464 728.836 215.952L733.21 214.332C733.606 215.916 734.47 217.068 735.802 217.788C737.17 218.472 738.592 218.814 740.068 218.814C741.148 218.814 742.156 218.652 743.092 218.328C744.064 218.004 744.856 217.536 745.468 216.924C746.08 216.312 746.386 215.61 746.386 214.818C746.386 213.342 745.792 212.298 744.604 211.686C743.452 211.074 742.066 210.606 740.446 210.282L736.72 209.526C735.424 209.238 734.218 208.842 733.102 208.338C731.986 207.798 731.086 207.042 730.402 206.07C729.718 205.098 729.376 203.802 729.376 202.182C729.376 200.562 729.88 199.212 730.888 198.132C731.896 197.016 733.174 196.17 734.722 195.594C736.306 195.018 737.962 194.73 739.69 194.73C741.814 194.73 743.812 195.18 745.684 196.08C747.592 196.944 748.942 198.312 749.734 200.184L745.468 201.75C745 200.67 744.172 199.878 742.984 199.374C741.832 198.834 740.626 198.564 739.366 198.564C737.998 198.564 736.756 198.87 735.64 199.482C734.524 200.094 733.966 200.976 733.966 202.128C733.966 203.28 734.434 204.126 735.37 204.666C736.342 205.17 737.53 205.566 738.934 205.854L742.444 206.556C743.884 206.844 745.252 207.258 746.548 207.798C747.844 208.338 748.906 209.148 749.734 210.228C750.562 211.272 750.976 212.748 750.976 214.656C750.976 216.348 750.454 217.788 749.41 218.976C748.366 220.164 747.016 221.082 745.36 221.73C743.704 222.342 741.94 222.648 740.068 222.648ZM761.004 190.14C760.104 190.14 759.312 189.816 758.628 189.168C757.98 188.484 757.656 187.674 757.656 186.738C757.656 185.802 757.98 185.01 758.628 184.362C759.312 183.714 760.104 183.39 761.004 183.39C761.94 183.39 762.732 183.714 763.38 184.362C764.064 185.01 764.406 185.802 764.406 186.738C764.406 187.674 764.064 188.484 763.38 189.168C762.732 189.816 761.94 190.14 761.004 190.14ZM758.736 222V198.834H755.01V195.216H763.272V222H758.736ZM782.135 222.648C779.579 222.648 777.365 222.054 775.493 220.866C773.621 219.642 772.181 217.986 771.173 215.898C770.165 213.81 769.661 211.416 769.661 208.716C769.661 206.052 770.183 203.676 771.227 201.588C772.307 199.464 773.819 197.808 775.763 196.62C777.707 195.396 779.993 194.784 782.621 194.784C785.033 194.784 787.103 195.378 788.831 196.566C790.559 197.754 791.855 199.176 792.719 200.832L788.561 202.344C787.985 201.264 787.139 200.4 786.023 199.752C784.907 199.104 783.665 198.78 782.297 198.78C780.965 198.78 779.705 199.14 778.517 199.86C777.329 200.544 776.375 201.624 775.655 203.1C774.935 204.54 774.575 206.394 774.575 208.662C774.575 210.894 774.935 212.766 775.655 214.278C776.411 215.754 777.365 216.852 778.517 217.572C779.705 218.292 780.965 218.652 782.297 218.652C783.773 218.652 785.051 218.328 786.131 217.68C787.247 216.996 788.093 216.15 788.669 215.142L792.827 216.654C791.819 218.382 790.379 219.822 788.507 220.974C786.635 222.09 784.511 222.648 782.135 222.648ZM800.117 222.648C799.181 222.648 798.371 222.306 797.687 221.622C797.003 220.938 796.661 220.128 796.661 219.192C796.661 218.22 797.003 217.392 797.687 216.708C798.371 216.024 799.181 215.682 800.117 215.682C801.089 215.682 801.917 216.024 802.601 216.708C803.285 217.392 803.627 218.22 803.627 219.192C803.627 220.128 803.285 220.938 802.601 221.622C801.917 222.306 801.089 222.648 800.117 222.648Z" fill="white"/>
<path d="M218.984 51.648C217.004 51.648 215.078 51.342 213.206 50.73C211.334 50.118 209.678 49.182 208.238 47.922C206.834 46.662 205.808 45.06 205.16 43.116L209.858 41.712C210.29 43.008 210.992 44.088 211.964 44.952C212.936 45.78 214.052 46.392 215.312 46.788C216.608 47.184 217.904 47.382 219.2 47.382C220.64 47.382 222.008 47.148 223.304 46.68C224.6 46.212 225.644 45.51 226.436 44.574C227.264 43.602 227.678 42.396 227.678 40.956C227.678 39.48 227.138 38.31 226.058 37.446C224.978 36.582 223.106 35.808 220.442 35.124L215.852 34.098C214.196 33.666 212.558 33.09 210.938 32.37C209.354 31.65 208.04 30.624 206.996 29.292C205.988 27.96 205.484 26.178 205.484 23.946C205.484 21.894 206.114 20.148 207.374 18.708C208.67 17.268 210.326 16.17 212.342 15.414C214.394 14.658 216.518 14.28 218.714 14.28C220.406 14.28 222.062 14.532 223.682 15.036C225.338 15.504 226.814 16.242 228.11 17.25C229.442 18.222 230.486 19.482 231.242 21.03L226.598 22.38C225.914 21.12 224.798 20.166 223.25 19.518C221.738 18.87 220.154 18.546 218.498 18.546C217.202 18.546 215.96 18.762 214.772 19.194C213.584 19.59 212.612 20.202 211.856 21.03C211.1 21.858 210.722 22.902 210.722 24.162C210.722 25.35 211.064 26.304 211.748 27.024C212.468 27.744 213.404 28.32 214.556 28.752C215.744 29.148 217.04 29.508 218.444 29.832L222.386 30.696C224.222 31.128 225.95 31.722 227.57 32.478C229.19 33.234 230.504 34.296 231.512 35.664C232.52 37.032 233.024 38.868 233.024 41.172C233.024 42.828 232.628 44.322 231.836 45.654C231.044 46.95 229.982 48.048 228.65 48.948C227.318 49.812 225.806 50.478 224.114 50.946C222.458 51.414 220.748 51.648 218.984 51.648ZM239.272 51V14.928H247.696L257.308 44.412L266.92 14.928H275.344V51H270.268V20.22L259.846 51H254.824L244.348 20.22V51H239.272ZM283.569 51V14.928H288.645V33.072L304.899 14.928H311.217L297.447 29.994L312.783 51H306.573L294.045 33.72L288.645 39.66V51H283.569ZM340.983 51V19.302H328.995V14.928H358.047V19.302H346.059V51H340.983ZM355.521 51L369.075 14.874H374.745L388.245 51H382.845L380.091 43.116H363.675L360.921 51H355.521ZM365.241 38.742H378.525L371.883 20.004L365.241 38.742ZM392.887 51V14.928H401.311L410.923 44.412L420.535 14.928H428.959V51H423.883V20.22L413.461 51H408.439L397.963 20.22V51H392.887ZM433.62 51L447.174 14.874H452.844L466.344 51H460.944L458.19 43.116H441.774L439.02 51H433.62ZM443.34 38.742H456.624L449.982 20.004L443.34 38.742ZM470.987 51V14.928H478.493L494.909 45.6V14.928H499.985V51H492.533L476.063 20.166V51H470.987ZM535.232 51.648C533.252 51.648 531.326 51.342 529.454 50.73C527.582 50.118 525.926 49.182 524.486 47.922C523.082 46.662 522.056 45.06 521.408 43.116L526.106 41.712C526.538 43.008 527.24 44.088 528.212 44.952C529.184 45.78 530.3 46.392 531.56 46.788C532.856 47.184 534.152 47.382 535.448 47.382C536.888 47.382 538.256 47.148 539.552 46.68C540.848 46.212 541.892 45.51 542.684 44.574C543.512 43.602 543.926 42.396 543.926 40.956C543.926 39.48 543.386 38.31 542.306 37.446C541.226 36.582 539.354 35.808 536.69 35.124L532.1 34.098C530.444 33.666 528.806 33.09 527.186 32.37C525.602 31.65 524.288 30.624 523.244 29.292C522.236 27.96 521.732 26.178 521.732 23.946C521.732 21.894 522.362 20.148 523.622 18.708C524.918 17.268 526.574 16.17 528.59 15.414C530.642 14.658 532.766 14.28 534.962 14.28C536.654 14.28 538.31 14.532 539.93 15.036C541.586 15.504 543.062 16.242 544.358 17.25C545.69 18.222 546.734 19.482 547.49 21.03L542.846 22.38C542.162 21.12 541.046 20.166 539.498 19.518C537.986 18.87 536.402 18.546 534.746 18.546C533.45 18.546 532.208 18.762 531.02 19.194C529.832 19.59 528.86 20.202 528.104 21.03C527.348 21.858 526.97 22.902 526.97 24.162C526.97 25.35 527.312 26.304 527.996 27.024C528.716 27.744 529.652 28.32 530.804 28.752C531.992 29.148 533.288 29.508 534.692 29.832L538.634 30.696C540.47 31.128 542.198 31.722 543.818 32.478C545.438 33.234 546.752 34.296 547.76 35.664C548.768 37.032 549.272 38.868 549.272 41.172C549.272 42.828 548.876 44.322 548.084 45.654C547.292 46.95 546.23 48.048 544.898 48.948C543.566 49.812 542.054 50.478 540.362 50.946C538.706 51.414 536.996 51.648 535.232 51.648ZM555.52 51V14.928H579.982V19.302H560.596V30.264H574.906V34.638H560.596V46.626H579.982V51H555.52ZM582.595 51L596.149 14.874H601.819L615.319 51H609.919L607.165 43.116H590.749L587.995 51H582.595ZM592.315 38.742H605.599L598.957 20.004L592.315 38.742ZM635.096 51V14.928H646.544C649.496 14.928 652.088 15.198 654.32 15.738C656.588 16.242 658.352 17.25 659.612 18.762C660.908 20.238 661.556 22.416 661.556 25.296C661.556 26.916 661.304 28.428 660.8 29.832C660.296 31.236 659.324 32.424 657.884 33.396C656.48 34.368 654.374 35.052 651.566 35.448L662.744 51H656.534L645.572 35.826H640.172V51H635.096ZM640.172 31.56H646.922C648.686 31.56 650.27 31.434 651.674 31.182C653.114 30.93 654.248 30.372 655.076 29.508C655.94 28.608 656.372 27.24 656.372 25.404C656.372 23.532 655.94 22.164 655.076 21.3C654.248 20.436 653.114 19.878 651.674 19.626C650.27 19.338 648.686 19.194 646.922 19.194H640.172V31.56ZM665.862 51L679.416 14.874H685.086L698.586 51H693.186L690.432 43.116H674.016L671.262 51H665.862ZM675.582 38.742H688.866L682.224 20.004L675.582 38.742ZM703.229 51V14.928H713.057C715.937 14.928 718.565 15.234 720.941 15.846C723.353 16.422 725.441 17.394 727.205 18.762C728.969 20.13 730.337 21.984 731.309 24.324C732.281 26.628 732.767 29.49 732.767 32.91C732.767 36.366 732.281 39.264 731.309 41.604C730.337 43.908 728.969 45.762 727.205 47.166C725.441 48.534 723.353 49.524 720.941 50.136C718.565 50.712 715.937 51 713.057 51H703.229ZM708.305 46.734H712.949C714.821 46.734 716.621 46.59 718.349 46.302C720.113 45.978 721.679 45.366 723.047 44.466C724.451 43.53 725.549 42.144 726.341 40.308C727.169 38.436 727.583 35.97 727.583 32.91C727.583 29.85 727.169 27.42 726.341 25.62C725.549 23.784 724.451 22.416 723.047 21.516C721.679 20.58 720.113 19.968 718.349 19.68C716.621 19.356 714.821 19.194 712.949 19.194H708.305V46.734ZM737.494 51V47.004H742.57V18.924H737.494V14.928H752.722V18.924H747.646V47.004H752.722V51H737.494ZM774.362 51.648C770.906 51.648 767.918 50.856 765.398 49.272C762.878 47.652 760.916 45.438 759.512 42.63C758.144 39.786 757.46 36.546 757.46 32.91C757.46 29.274 758.144 26.07 759.512 23.298C760.916 20.49 762.878 18.294 765.398 16.71C767.918 15.09 770.906 14.28 774.362 14.28C777.854 14.28 780.86 15.09 783.38 16.71C785.9 18.294 787.844 20.49 789.212 23.298C790.616 26.07 791.318 29.274 791.318 32.91C791.318 36.546 790.616 39.786 789.212 42.63C787.844 45.438 785.9 47.652 783.38 49.272C780.86 50.856 777.854 51.648 774.362 51.648ZM774.362 47.382C776.558 47.382 778.538 46.824 780.302 45.708C782.102 44.592 783.524 42.972 784.568 40.848C785.612 38.688 786.134 36.042 786.134 32.91C786.134 29.814 785.612 27.204 784.568 25.08C783.524 22.92 782.102 21.3 780.302 20.22C778.538 19.104 776.558 18.546 774.362 18.546C772.202 18.546 770.222 19.104 768.422 20.22C766.658 21.3 765.254 22.92 764.21 25.08C763.166 27.204 762.644 29.814 762.644 32.91C762.644 36.042 763.166 38.688 764.21 40.848C765.254 42.972 766.658 44.592 768.422 45.708C770.222 46.824 772.202 47.382 774.362 47.382ZM813.233 51V14.928H836.669V19.302H818.309V30.264H836.669V34.638H818.309V51H813.233ZM842.817 51V14.928H851.241L860.853 44.412L870.465 14.928H878.889V51H873.813V20.22L863.391 51H858.369L847.893 20.22V51H842.817Z" fill="white"/>
</svg>
