<svg width="1067" height="160" viewBox="0 0 1067 160" fill="none" xmlns="http://www.w3.org/2000/svg">
<path d="M56.6267 127.28C47.0267 127.28 39.4534 125.253 33.9067 121.2C28.4312 117.147 25.4801 111.493 25.0534 104.24H43.9334C44.5023 107.084 45.8534 109.182 47.9867 110.533C50.1912 111.884 53.3556 112.56 57.4801 112.56C63.8801 112.56 67.0801 110.889 67.0801 107.547C67.0801 106.196 66.5823 105.129 65.5867 104.347C64.6623 103.493 63.0978 102.853 60.8934 102.427L46.6001 99.6533C33.5156 97.0933 26.9734 90.9778 26.9734 81.3067C26.9734 75.0489 29.4978 70.0711 34.5467 66.3733C39.5956 62.6044 46.5645 60.72 55.4534 60.72C64.3423 60.72 71.3467 62.64 76.4667 66.48C81.5867 70.32 84.3601 75.7244 84.7867 82.6933H65.9067C65.1956 79.92 63.9156 77.9289 62.0667 76.72C60.289 75.44 57.6578 74.8 54.1734 74.8C51.329 74.8 49.1245 75.1911 47.5601 75.9733C46.0667 76.7556 45.3201 77.9289 45.3201 79.4933C45.3201 80.6311 45.7823 81.5911 46.7067 82.3733C47.6312 83.1556 49.0178 83.7244 50.8667 84.08L65.5867 86.96C72.4134 88.3111 77.4267 90.5156 80.6267 93.5733C83.8267 96.6311 85.4267 100.756 85.4267 105.947C85.4267 112.631 82.9378 117.858 77.9601 121.627C73.0534 125.396 65.9423 127.28 56.6267 127.28ZM116.09 127.173C108.41 127.173 102.401 125.36 98.0634 121.733C93.7967 118.036 91.6634 113.129 91.6634 107.013C91.6634 100.684 93.9034 95.8133 98.3834 92.4C102.935 88.9156 109.406 87.1733 117.797 87.1733H134.97V84.8267C134.97 78.9956 131.272 76.08 123.877 76.08C117.335 76.08 113.352 78.2844 111.93 82.6933H92.5167C94.0101 75.44 97.3878 69.9644 102.65 66.2667C107.912 62.5689 114.952 60.72 123.77 60.72C133.512 60.72 140.943 62.8889 146.063 67.2267C151.183 71.4933 153.743 77.7511 153.743 86V106.8H162.917V126H143.29V115.333H138.81C136.606 119.173 133.69 122.124 130.063 124.187C126.437 126.178 121.779 127.173 116.09 127.173ZM119.077 112.453C122.206 112.453 124.943 111.92 127.29 110.853C129.708 109.787 131.592 108.329 132.943 106.48C134.295 104.631 134.97 102.569 134.97 100.293V99.9733H118.65C113.175 99.9733 110.437 102 110.437 106.053C110.437 108.116 111.183 109.716 112.677 110.853C114.241 111.92 116.375 112.453 119.077 112.453ZM174.608 126V81.2H165.008V62H184.635V72.6667H189.115C191.533 68.8978 194.555 65.9822 198.182 63.92C201.88 61.8578 206.466 60.8267 211.942 60.8267C217.133 60.8267 221.542 61.7156 225.168 63.4933C228.866 65.2 231.853 67.7244 234.128 71.0667H234.555C239.604 64.24 246.857 60.8267 256.315 60.8267C264.777 60.8267 271.462 63.28 276.368 68.1867C281.346 73.0933 283.835 79.6711 283.835 87.92V126H264.208V91.76C264.208 82.8 260.013 78.32 251.622 78.32C243.231 78.32 239.035 82.8 239.035 91.76V126H219.408V91.76C219.408 82.8 215.142 78.32 206.608 78.32C202.484 78.32 199.391 79.4222 197.328 81.6267C195.266 83.8311 194.235 87.2089 194.235 91.76V126H174.608ZM323.777 127.173C314.603 127.173 307.635 124.827 302.87 120.133C298.106 115.369 295.723 108.898 295.723 100.72V62H315.35V96.88C315.35 101.218 316.417 104.453 318.55 106.587C320.755 108.649 324.061 109.68 328.47 109.68C333.092 109.68 336.612 108.542 339.03 106.267C341.448 103.92 342.657 100.578 342.657 96.24V62H362.283V106.8H371.883V126H352.257V115.333H347.777C345.146 119.173 342.017 122.124 338.39 124.187C334.763 126.178 329.892 127.173 323.777 127.173ZM407.813 127.28C401.129 127.28 395.476 125.893 390.853 123.12C386.302 120.276 382.853 116.364 380.507 111.387C378.16 106.338 376.987 100.542 376.987 94C376.987 87.3867 378.125 81.5911 380.4 76.6133C382.676 71.5644 385.982 67.6533 390.32 64.88C394.729 62.1067 399.991 60.72 406.107 60.72C410.658 60.72 414.569 61.5733 417.84 63.28C421.111 64.9156 423.636 67.2267 425.413 70.2133H425.84V36.4H445.467V106.8H455.067V126H435.44V115.333H430.96C428.685 119.102 425.591 122.053 421.68 124.187C417.84 126.249 413.218 127.28 407.813 127.28ZM411.547 110.213C415.956 110.213 419.44 109.004 422 106.587C424.56 104.098 425.84 100.684 425.84 96.3467V91.6533C425.84 87.3156 424.56 83.9378 422 81.52C419.44 79.0311 415.956 77.7867 411.547 77.7867C406.498 77.7867 402.729 79.2444 400.24 82.16C397.822 85.0756 396.613 89.0222 396.613 94C396.613 98.9778 397.822 102.924 400.24 105.84C402.729 108.756 406.498 110.213 411.547 110.213ZM469.837 126V81.2H460.237V62H479.863V74.8H484.343C485.979 70.1778 488.646 66.7644 492.343 64.56C496.041 62.2844 500.166 61.1467 504.717 61.1467H510.157V78.2133H503.863C498.601 78.2133 494.797 79.6711 492.45 82.5867C490.175 85.5022 489.037 89.3067 489.037 94V126H469.837ZM538.465 127.173C530.785 127.173 524.776 125.36 520.438 121.733C516.172 118.036 514.038 113.129 514.038 107.013C514.038 100.684 516.278 95.8133 520.758 92.4C525.31 88.9156 531.781 87.1733 540.172 87.1733H557.345V84.8267C557.345 78.9956 553.647 76.08 546.252 76.08C539.71 76.08 535.727 78.2844 534.305 82.6933H514.892C516.385 75.44 519.763 69.9644 525.025 66.2667C530.287 62.5689 537.327 60.72 546.145 60.72C555.887 60.72 563.318 62.8889 568.438 67.2267C573.558 71.4933 576.118 77.7511 576.118 86V106.8H585.292V126H565.665V115.333H561.185C558.981 119.173 556.065 122.124 552.438 124.187C548.812 126.178 544.154 127.173 538.465 127.173ZM541.452 112.453C544.581 112.453 547.318 111.92 549.665 110.853C552.083 109.787 553.967 108.329 555.318 106.48C556.67 104.631 557.345 102.569 557.345 100.293V99.9733H541.025C535.55 99.9733 532.812 102 532.812 106.053C532.812 108.116 533.558 109.716 535.052 110.853C536.616 111.92 538.75 112.453 541.452 112.453ZM600.175 126V77.36H589.295V62H600.388V51.76C600.388 46.4978 601.74 42.6222 604.442 40.1333C607.215 37.6444 611.126 36.4 616.175 36.4H634.735V51.76H619.588V62H633.455V77.36H619.802V126H600.175ZM647.108 126V81.2H637.508V62H657.135V72.6667H661.615C664.033 68.8978 667.055 65.9822 670.682 63.92C674.38 61.8578 678.966 60.8267 684.442 60.8267C689.633 60.8267 694.042 61.7156 697.668 63.4933C701.366 65.2 704.353 67.7244 706.628 71.0667H707.055C712.104 64.24 719.357 60.8267 728.815 60.8267C737.277 60.8267 743.962 63.28 748.868 68.1867C753.846 73.0933 756.335 79.6711 756.335 87.92V126H736.708V91.76C736.708 82.8 732.513 78.32 724.122 78.32C715.731 78.32 711.535 82.8 711.535 91.76V126H691.908V91.76C691.908 82.8 687.642 78.32 679.108 78.32C674.984 78.32 671.891 79.4222 669.828 81.6267C667.766 83.8311 666.735 87.2089 666.735 91.76V126H647.108ZM831.032 127.28C824.347 127.28 818.445 125.929 813.325 123.227C808.276 120.453 804.294 116.578 801.378 111.6C798.534 106.622 797.112 100.756 797.112 94C797.112 87.2444 798.534 81.3778 801.378 76.4C804.223 71.4222 808.205 67.5822 813.325 64.88C818.445 62.1067 824.347 60.72 831.032 60.72C839.707 60.72 846.818 62.9244 852.365 67.3333C857.983 71.7422 861.432 77.7156 862.712 85.2533H843.085C842.232 82.9067 840.774 81.0933 838.712 79.8133C836.721 78.4622 834.161 77.7867 831.032 77.7867C826.836 77.7867 823.387 79.2089 820.685 82.0533C818.054 84.8267 816.738 88.8089 816.738 94C816.738 99.1911 818.09 103.209 820.792 106.053C823.494 108.827 826.907 110.213 831.032 110.213C837.787 110.213 841.912 107.404 843.405 101.787H863.032C861.894 109.68 858.552 115.902 853.005 120.453C847.458 125.004 840.134 127.28 831.032 127.28ZM901.473 127.28C894.433 127.28 888.282 125.929 883.02 123.227C877.758 120.453 873.669 116.578 870.753 111.6C867.909 106.551 866.487 100.649 866.487 93.8933C866.487 87.1378 867.909 81.2711 870.753 76.2933C873.669 71.3156 877.758 67.4756 883.02 64.7733C888.282 62.0711 894.469 60.72 901.58 60.72C908.691 60.72 914.807 62.0711 919.927 64.7733C925.118 67.4756 929.136 71.3156 931.98 76.2933C934.825 81.2711 936.247 87.1733 936.247 94C936.247 100.756 934.825 106.658 931.98 111.707C929.136 116.684 925.118 120.524 919.927 123.227C914.736 125.929 908.585 127.28 901.473 127.28ZM901.473 110.213C906.38 110.213 910.113 108.756 912.673 105.84C915.305 102.853 916.62 98.8711 916.62 93.8933C916.62 88.9156 915.305 85.0044 912.673 82.16C910.113 79.2444 906.38 77.7867 901.473 77.7867C896.496 77.7867 892.691 79.2444 890.06 82.16C887.429 85.0044 886.113 88.9156 886.113 93.8933C886.113 98.8711 887.429 102.853 890.06 105.84C892.691 108.756 896.496 110.213 901.473 110.213ZM950.983 126V81.2H941.383V62H961.01V72.6667H965.49C967.908 68.8978 970.93 65.9822 974.557 63.92C978.255 61.8578 982.841 60.8267 988.317 60.8267C993.508 60.8267 997.917 61.7156 1001.54 63.4933C1005.24 65.2 1008.23 67.7244 1010.5 71.0667H1010.93C1015.98 64.24 1023.23 60.8267 1032.69 60.8267C1041.15 60.8267 1047.84 63.28 1052.74 68.1867C1057.72 73.0933 1060.21 79.6711 1060.21 87.92V126H1040.58V91.76C1040.58 82.8 1036.39 78.32 1028 78.32C1019.61 78.32 1015.41 82.8 1015.41 91.76V126H995.783V91.76C995.783 82.8 991.517 78.32 982.983 78.32C978.859 78.32 975.766 79.4222 973.703 81.6267C971.641 83.8311 970.61 87.2089 970.61 91.76V126H950.983Z" fill="white"/>
<path d="M770.058 126V108.464H786.314V126H770.058Z" fill="#F91E5A"/>
<path d="M769 126V108H787V126H769Z" fill="#F91E5A"/>
<path d="M41.0001 48.7666L41.0001 31L0.000144958 31L0.000146512 48.7666L41.0001 48.7666Z" fill="#F91E5A"/>
<path d="M17.7666 31.0001L0 31.0001L5.37649e-06 72L17.7666 72L17.7666 31.0001Z" fill="#F91E5A"/>
</svg>
