<svg width="287" height="160" viewBox="0 0 287 160" fill="none" xmlns="http://www.w3.org/2000/svg">
<path d="M56.6267 129.28C47.0267 129.28 39.4534 127.253 33.9067 123.2C28.4311 119.147 25.48 113.493 25.0534 106.24H43.9334C44.5023 109.084 45.8534 111.182 47.9867 112.533C50.1911 113.884 53.3556 114.56 57.48 114.56C63.88 114.56 67.08 112.889 67.08 109.547C67.08 108.196 66.5823 107.129 65.5867 106.347C64.6623 105.493 63.0978 104.853 60.8934 104.427L46.6 101.653C33.5156 99.0933 26.9734 92.9778 26.9734 83.3067C26.9734 77.0489 29.4978 72.0711 34.5467 68.3733C39.5956 64.6044 46.5645 62.72 55.4534 62.72C64.3423 62.72 71.3467 64.64 76.4667 68.48C81.5867 72.32 84.36 77.7244 84.7867 84.6933H65.9067C65.1956 81.92 63.9156 79.9289 62.0667 78.72C60.2889 77.44 57.6578 76.8 54.1734 76.8C51.3289 76.8 49.1245 77.1911 47.56 77.9733C46.0667 78.7556 45.32 79.9289 45.32 81.4933C45.32 82.6311 45.7823 83.5911 46.7067 84.3733C47.6311 85.1556 49.0178 85.7244 50.8667 86.08L65.5867 88.96C72.4134 90.3111 77.4267 92.5156 80.6267 95.5733C83.8267 98.6311 85.4267 102.756 85.4267 107.947C85.4267 114.631 82.9378 119.858 77.96 123.627C73.0534 127.396 65.9423 129.28 56.6267 129.28ZM101.05 128V79.36H90.17V64H101.263V53.76C101.263 48.4978 102.614 44.6222 105.317 42.1333C108.09 39.6444 112.001 38.4 117.05 38.4H135.61V53.76H120.463V64H134.33V79.36H120.677V128H101.05ZM147.983 128V83.2H138.383V64H158.01V74.6667H162.49C164.908 70.8978 167.93 67.9822 171.557 65.92C175.254 63.8578 179.841 62.8267 185.317 62.8267C190.508 62.8267 194.917 63.7156 198.543 65.4933C202.241 67.2 205.228 69.7244 207.503 73.0667H207.93C212.979 66.24 220.232 62.8267 229.69 62.8267C238.152 62.8267 244.837 65.28 249.743 70.1867C254.721 75.0933 257.21 81.6711 257.21 89.92V128H237.583V93.76C237.583 84.8 233.388 80.32 224.997 80.32C216.606 80.32 212.41 84.8 212.41 93.76V128H192.783V93.76C192.783 84.8 188.517 80.32 179.983 80.32C175.859 80.32 172.766 81.4222 170.703 83.6267C168.641 85.8311 167.61 89.2089 167.61 93.76V128H147.983Z" fill="white"/>
<path d="M269 128V110H287V128H269Z" fill="#F91E5A"/>
<path d="M41 49.7666L41 32L0.000114441 32L0.000115994 49.7666L41 49.7666Z" fill="#F91E5A"/>
<path d="M17.7666 32.0001L0 32.0001L5.37649e-06 73L17.7666 73L17.7666 32.0001Z" fill="#F91E5A"/>
</svg>
